<?xml version="1.0" encoding="utf-8"?>
<!-- Generator: Adobe Illustrator 27.7.0, SVG Export Plug-In . SVG Version: 6.00 Build 0)  -->
<svg version="1.1" id="Capa_1" xmlns="http://www.w3.org/2000/svg" xmlns:xlink="http://www.w3.org/1999/xlink" x="0px" y="0px"
	 viewBox="0 0 149.2 26" style="enable-background:new 0 0 149.2 26;" xml:space="preserve">
<style type="text/css">
	.st0{enable-background:new    ;}
	.st1{fill:#D9FE51;}
	.st2{fill:#EB5D81;}
</style>
<g class="st0">
	<path d="M13.8,14.3c0,3.8-3.5,5-6.1,5c-4.8,0-6.6-2.8-6.9-5.5h3.9c0.4,1.3,1.1,1.9,3,1.9c1.5,0,2.2-0.5,2.2-1.3
		c0-0.9-0.9-1-3.6-1.5c-2.6-0.5-5.2-1.5-5.2-4.7c0-3.5,3.1-5.1,6.1-5.1c4.4,0,6.1,2.5,6.4,5.2H9.8C9.5,7.4,9,6.6,7.2,6.6
		C5.5,6.6,5,7.3,5,8c0,0.7,0.7,0.8,2.3,1.2C11.7,10.1,13.8,11.1,13.8,14.3z"/>
	<path d="M28.3,13.7h-9c0.2,1.9,1.4,2.7,2.7,2.7c1,0,1.9-0.5,2.2-1.4h3.9c-0.9,3-3.4,4.3-6.1,4.3c-3.9,0-6.6-2.8-6.6-6.5
		c0-3.7,2.7-6.5,6.5-6.5C26,6.4,28.7,9.6,28.3,13.7z M19.4,11.4h4.9c-0.2-1.2-1.1-2-2.4-2S19.8,10.2,19.4,11.4z"/>
	<path d="M30.2,1.8H34v17.3h-3.8V1.8z"/>
	<path d="M36.2,1.8H40v17.3h-3.8V1.8z"/>
	<path d="M54.9,13.7h-9c0.2,1.9,1.4,2.7,2.7,2.7c1,0,1.9-0.5,2.2-1.4h3.9c-0.9,3-3.4,4.3-6.1,4.3c-3.9,0-6.6-2.8-6.6-6.5
		c0-3.7,2.7-6.5,6.5-6.5C52.6,6.4,55.3,9.6,54.9,13.7z M46,11.4h4.9c-0.2-1.2-1.1-2-2.4-2S46.3,10.2,46,11.4z"/>
	<path d="M64.8,6.5v3.9c-0.2,0-0.4,0-0.8,0c-1.8,0-3.5,0.5-3.5,3.3v5.3h-3.8V6.7h3.8v1.9c0.8-1.5,2-2.2,3.6-2.2
		C64.4,6.4,64.7,6.5,64.8,6.5z"/>
</g>
<g class="st0">
	<path d="M68.8,11.5c0-4.6,3.4-8.1,8.1-8.1c3.9,0,6.8,2.4,7.6,5.8h-4.1C79.9,7.8,78.6,7,76.9,7c-2.6,0-4.3,1.9-4.3,4.5
		c0,2.6,1.7,4.5,4.3,4.5c1.7,0,2.9-0.8,3.6-2.2h4.1c-0.9,3.4-3.8,5.8-7.6,5.8C72.2,19.6,68.8,16.1,68.8,11.5z"/>
	<path d="M99.1,14h-9c0.2,1.9,1.4,2.7,2.7,2.7c1,0,1.9-0.5,2.2-1.4H99c-0.9,3-3.4,4.3-6.1,4.3c-3.9,0-6.6-2.8-6.6-6.5
		c0-3.7,2.7-6.5,6.5-6.5C96.9,6.7,99.5,9.9,99.1,14z M90.3,11.7h4.9c-0.2-1.2-1.1-2-2.4-2S90.6,10.5,90.3,11.7z"/>
	<path d="M112.8,11.6v7.7H109v-6.9c0-1.3-0.4-2.1-2-2.1c-1.5,0-2.3,0.7-2.3,2.4v6.5H101V7h3.8v1.4c0.9-1.1,2-1.7,3.6-1.7
		C111.1,6.7,112.8,8.6,112.8,11.6z"/>
</g>
<g class="st0">
	<path d="M124.9,18.6c-0.7,0.5-2.3,1.1-3.9,1.1c-2.4,0-4.7-1.4-4.7-5.1v-4h-2.1V7h2.1V4.5l3.8-0.8V7h4.1v3.6h-4.1v3.7
		c0,1.2,0.6,1.7,1.6,1.7c0.7,0,1.5-0.3,2.5-0.6L124.9,18.6z"/>
</g>
<g class="st0">
	<path d="M138.8,14h-9c0.2,1.9,1.4,2.7,2.7,2.7c1,0,1.9-0.5,2.2-1.4h3.9c-0.9,3-3.4,4.3-6.1,4.3c-3.9,0-6.6-2.8-6.6-6.5
		c0-3.7,2.7-6.5,6.5-6.5C136.5,6.7,139.2,9.9,138.8,14z M129.9,11.7h4.9c-0.2-1.2-1.1-2-2.4-2S130.3,10.5,129.9,11.7z"/>
	<path d="M148.8,6.8v3.9c-0.2,0-0.4,0-0.8,0c-1.8,0-3.5,0.5-3.5,3.3v5.3h-3.8V7h3.8v1.9c0.8-1.5,2-2.2,3.6-2.2
		C148.4,6.7,148.6,6.8,148.8,6.8z"/>
</g>
<rect x="17.4" y="1.1" class="st1" width="8.9" height="3.4"/>
<g class="st0">
	<path class="st2" d="M111.2,23.9h-1.4l-0.3,0.8h-0.7l1.3-3.4h0.9l1.3,3.4h-0.7L111.2,23.9z M110.9,23.3l-0.5-1.2l-0.5,1.2H110.9z"
		/>
	<path class="st2" d="M113.1,21.3h0.7v3.4h-0.7V21.3z"/>
	<path class="st2" d="M117.6,23.8c0,0.6-0.5,1-1.2,1H115v-3.4h1.5c0.6,0,1.1,0.3,1.1,0.9c0,0.3-0.1,0.5-0.4,0.7
		C117.5,23,117.6,23.4,117.6,23.8z M116.4,22h-0.7v0.7h0.7c0.3,0,0.4-0.1,0.4-0.3C116.8,22.1,116.7,22,116.4,22z M116.9,23.7
		c0-0.2-0.1-0.4-0.5-0.4h-0.8v0.8h0.8C116.8,24.1,116.9,23.9,116.9,23.7z"/>
	<path class="st2" d="M122,23c0,1-0.8,1.8-1.8,1.8c-1,0-1.8-0.8-1.8-1.8c0-1,0.8-1.8,1.8-1.8C121.3,21.3,122,22,122,23z M119.2,23
		c0,0.6,0.5,1.1,1.1,1.1c0.6,0,1.1-0.5,1.1-1.1s-0.5-1.1-1.1-1.1C119.6,21.9,119.2,22.4,119.2,23z"/>
	<path class="st2" d="M126.4,21.3v3.4h-0.7v-2.5l-1,1.5h-0.1l-1-1.5v2.5H123v-3.4h0.8l0.9,1.3l0.9-1.3H126.4z"/>
	<path class="st2" d="M129.7,23.9h-1.4l-0.3,0.8h-0.7l1.3-3.4h0.9l1.3,3.4H130L129.7,23.9z M129.4,23.3L129,22l-0.5,1.2H129.4z"/>
	<path class="st2" d="M132.7,23.5h-0.4v1.2h-0.7v-3.4h1.5c0.7,0,1.2,0.4,1.2,1.1c0,0.6-0.3,0.9-0.8,1l1,1.3h-0.9L132.7,23.5z
		 M132.3,22.9h0.7c0.4,0,0.5-0.2,0.5-0.5c0-0.3-0.2-0.5-0.5-0.5h-0.7V22.9z"/>
	<path class="st2" d="M137.4,24.8l-1.3-1.6v1.6h-0.7v-3.4h0.7v1.5l1.2-1.5h0.9l-1.4,1.7l1.4,1.8H137.4z"/>
	<path class="st2" d="M139.9,22v0.7h1.5v0.7h-1.5v0.7h1.6v0.7h-2.3v-3.4h2.3V22H139.9z"/>
	<path class="st2" d="M144.9,22h-1v2.8h-0.7V22h-1v-0.7h2.7V22z"/>
</g>
</svg>
