<?xml version="1.0" encoding="utf-8"?>
<!-- Generator: Adobe Illustrator 26.3.1, SVG Export Plug-In . SVG Version: 6.00 Build 0)  -->
<svg version="1.1" id="Capa_1" xmlns="http://www.w3.org/2000/svg" xmlns:xlink="http://www.w3.org/1999/xlink" x="0px" y="0px"
	 viewBox="0 0 328.8 94.5" style="enable-background:new 0 0 328.8 94.5;" xml:space="preserve">
<style type="text/css">
	.st0{fill:#FFFFFF;}
</style>
<g>
	<g>
		<path class="st0" d="M130.2,78.7v2.8h0.6c0.4,0,0.6-0.2,0.6-0.8v-1.2c0-0.6-0.2-0.8-0.6-0.8H130.2z M132.8,79.5v1.1
			c0,1.3-0.6,2-1.9,2h-0.6v3.1h-1.3v-8.2h1.9C132.1,77.5,132.8,78.2,132.8,79.5"/>
	</g>
</g>
<g>
	<path class="st0" d="M136.3,83.1h1.2l-0.6-4.2L136.3,83.1z M139.3,85.7h-1.3l-0.2-1.5h-1.6l-0.2,1.5h-1.2l1.3-8.2h1.9L139.3,85.7z"
		/>
</g>
<g>
	<path class="st0" d="M143.4,77.4c1.3,0,1.9,0.8,1.9,2.1v0.3h-1.2v-0.3c0-0.6-0.2-0.8-0.6-0.8c-0.4,0-0.6,0.2-0.6,0.8
		c0,1.7,2.5,2,2.5,4.4c0,1.3-0.7,2.1-1.9,2.1c-1.3,0-1.9-0.8-1.9-2.1v-0.5h1.2v0.6c0,0.6,0.3,0.8,0.7,0.8c0.4,0,0.7-0.2,0.7-0.8
		c0-1.7-2.5-2-2.5-4.4C141.5,78.2,142.1,77.4,143.4,77.4"/>
</g>
<g>
	<polygon class="st0" points="147.5,77.5 151.5,77.5 151.5,78.7 150.1,78.7 150.1,85.7 148.8,85.7 148.8,78.7 147.5,78.7 	"/>
</g>
<g>
	<polygon class="st0" points="155.1,81 156.9,81 156.9,82.1 155.1,82.1 155.1,84.6 157.3,84.6 157.3,85.7 153.8,85.7 153.8,77.5 
		157.3,77.5 157.3,78.7 155.1,78.7 	"/>
</g>
<g>
	<polygon class="st0" points="159.9,77.5 161.2,77.5 161.2,84.6 163.4,84.6 163.4,85.7 159.9,85.7 	"/>
</g>
<g>
	<polygon class="st0" points="167,81 168.8,81 168.8,82.1 167,82.1 167,84.6 169.2,84.6 169.2,85.7 165.7,85.7 165.7,77.5 
		169.2,77.5 169.2,78.7 167,78.7 	"/>
</g>
<g>
	<g>
		<path class="st0" d="M173.1,78.7v2.5h0.5c0.5,0,0.8-0.2,0.8-0.9v-0.8c0-0.6-0.2-0.8-0.7-0.8H173.1z M174.5,85.7
			c-0.1-0.2-0.1-0.3-0.1-1v-1.3c0-0.8-0.3-1-0.9-1h-0.4v3.4h-1.3v-8.2h2c1.3,0,1.9,0.6,1.9,1.9V80c0,0.8-0.3,1.4-0.8,1.7
			c0.6,0.3,0.9,0.9,0.9,1.8v1.3c0,0.4,0,0.7,0.1,1H174.5z"/>
	</g>
</g>
<g>
	<path class="st0" d="M178.3,77.5h1.3v8.2h-1.3V77.5z M180.4,75.8l-1.2,1.3h-0.9l0.8-1.3H180.4z"/>
</g>
<g>
	<path class="st0" d="M183.6,83.1h1.2l-0.6-4.2L183.6,83.1z M186.6,85.7h-1.3l-0.2-1.5h-1.6l-0.2,1.5H182l1.3-8.2h1.9L186.6,85.7z"
		/>
</g>
<g>
	<path class="st0" d="M109.1,76.5c-0.6,0-1.1,0.5-1.1,1.1v6.2v1V88l3.4-2.9c0.4-0.3,1-0.3,1.4,0l3.4,2.9v-3.2v-1v-6.2
		c0-0.6-0.5-1.1-1.1-1.1H109.1z"/>
</g>
<g>
	<path class="st0" d="M200.2,76.5c-0.6,0-1.1,0.5-1.1,1.1v6.2v1V88l3.4-2.9c0.4-0.3,1-0.3,1.4,0l3.4,2.9v-3.2v-1v-6.2
		c0-0.6-0.5-1.1-1.1-1.1H200.2z"/>
</g>
<g>
	<path class="st0" d="M43.1,78.7v2.8h0.6c0.4,0,0.6-0.2,0.6-0.8v-1.2c0-0.6-0.2-0.8-0.6-0.8H43.1z M45.6,79.5v1.1c0,1.3-0.6,2-1.9,2
		h-0.6v3.1h-1.3v-8.2h1.9C45,77.5,45.6,78.2,45.6,79.5"/>
</g>
<g>
	<path class="st0" d="M49.1,83.1h1.2L49.7,79L49.1,83.1z M52.1,85.7h-1.3l-0.2-1.5H49l-0.2,1.5h-1.2l1.3-8.2h1.9L52.1,85.7z"/>
</g>
<g>
	<polygon class="st0" points="55.6,79.8 55.6,85.7 54.5,85.7 54.5,77.5 56.1,77.5 57.4,82.4 57.4,77.5 58.6,77.5 58.6,85.7 
		57.2,85.7 	"/>
</g>
<g>
	<path class="st0" d="M62.5,83.1h1.2L63.1,79L62.5,83.1z M65.5,85.7h-1.3l-0.2-1.5h-1.6l-0.2,1.5h-1.2l1.3-8.2h1.9L65.5,85.7z"/>
</g>
<g>
	<g>
		<path class="st0" d="M69.2,78.7v5.9h0.7c0.4,0,0.7-0.2,0.7-0.8v-4.3c0-0.6-0.2-0.8-0.7-0.8H69.2z M67.9,77.5h2
			c1.3,0,1.9,0.7,1.9,2v4.2c0,1.3-0.6,2-1.9,2h-2V77.5z"/>
	</g>
</g>
<g>
	<polygon class="st0" points="75.7,81 77.5,81 77.5,82.1 75.7,82.1 75.7,84.6 78,84.6 78,85.7 74.5,85.7 74.5,77.5 78,77.5 78,78.7 
		75.7,78.7 	"/>
</g>
<g>
	<g>
		<path class="st0" d="M81.9,78.7v2.5h0.5c0.5,0,0.8-0.2,0.8-0.9v-0.8c0-0.6-0.2-0.8-0.7-0.8H81.9z M83.3,85.7
			c-0.1-0.2-0.1-0.3-0.1-1v-1.3c0-0.8-0.3-1-0.8-1h-0.4v3.4h-1.3v-8.2h2c1.3,0,1.9,0.6,1.9,1.9V80c0,0.8-0.3,1.4-0.9,1.7
			c0.7,0.3,0.9,0.9,0.9,1.8v1.3c0,0.4,0,0.7,0.1,1H83.3z"/>
	</g>
</g>
<g>
	<path class="st0" d="M87.1,77.5h1.3v8.2h-1.3V77.5z M89.1,75.8l-1.2,1.3h-0.9l0.8-1.3H89.1z"/>
</g>
<g>
	<path class="st0" d="M92.3,83.1h1.2L93,79L92.3,83.1z M95.3,85.7H94l-0.2-1.5h-1.6L92,85.7h-1.2l1.3-8.2H94L95.3,85.7z"/>
</g>
<g>
	<g>
		<path class="st0" d="M222.1,81.1h1.8v2.6c0,1.3-0.7,2.1-1.9,2.1c-1.3,0-1.9-0.8-1.9-2.1v-4.3c0-1.3,0.7-2.1,1.9-2.1
			c1.3,0,1.9,0.8,1.9,2.1v0.8h-1.2v-0.9c0-0.6-0.3-0.8-0.7-0.8s-0.7,0.2-0.7,0.8v4.5c0,0.6,0.3,0.8,0.7,0.8s0.7-0.2,0.7-0.8v-1.5
			h-0.6V81.1z"/>
	</g>
</g>
<g>
	<path class="st0" d="M227.8,83.1h1.2l-0.6-4.2L227.8,83.1z M230.7,85.7h-1.3l-0.2-1.5h-1.6l-0.2,1.5h-1.2l1.3-8.2h1.9L230.7,85.7z"
		/>
</g>
<g>
	<polygon class="st0" points="238.9,77.5 242.9,77.5 242.9,78.7 241.6,78.7 241.6,85.7 240.3,85.7 240.3,78.7 238.9,78.7 	"/>
</g>
<g>
	<path class="st0" d="M246.6,78.7v2.5h0.5c0.5,0,0.8-0.2,0.8-0.9v-0.8c0-0.6-0.2-0.8-0.7-0.8H246.6z M248,85.7
		c-0.1-0.2-0.1-0.3-0.1-1v-1.3c0-0.8-0.3-1-0.9-1h-0.4v3.4h-1.3v-8.2h2c1.3,0,1.9,0.6,1.9,1.9V80c0,0.8-0.3,1.4-0.8,1.7
		c0.6,0.3,0.9,0.9,0.9,1.8v1.3c0,0.4,0,0.7,0.1,1H248z"/>
</g>
<g>
	<path class="st0" d="M253,83.8c0,0.6,0.3,0.8,0.7,0.8c0.4,0,0.7-0.2,0.7-0.8v-4.5c0-0.6-0.3-0.8-0.7-0.8c-0.4,0-0.7,0.2-0.7,0.8
		V83.8z M251.7,79.5c0-1.3,0.7-2.1,2-2.1c1.3,0,2,0.8,2,2.1v4.3c0,1.3-0.7,2.1-2,2.1c-1.3,0-2-0.8-2-2.1V79.5z"/>
</g>
<g>
	<polygon class="st0" points="259.4,79.8 259.4,85.7 258.2,85.7 258.2,77.5 259.8,77.5 261.2,82.4 261.2,77.5 262.3,77.5 
		262.3,85.7 261,85.7 	"/>
</g>
<g>
	<path class="st0" d="M266.2,83.8c0,0.6,0.3,0.8,0.7,0.8c0.4,0,0.7-0.2,0.7-0.8v-4.5c0-0.6-0.3-0.8-0.7-0.8c-0.4,0-0.7,0.2-0.7,0.8
		V83.8z M264.9,79.5c0-1.3,0.7-2.1,2-2.1c1.3,0,2,0.8,2,2.1v4.3c0,1.3-0.7,2.1-2,2.1c-1.3,0-2-0.8-2-2.1V79.5z"/>
</g>
<g>
	<polygon class="st0" points="274.2,83.4 275.1,77.5 276.9,77.5 276.9,85.7 275.7,85.7 275.7,79.8 274.8,85.7 273.6,85.7 
		272.6,79.9 272.6,85.7 271.5,85.7 271.5,77.5 273.3,77.5 	"/>
</g>
<g>
	<path class="st0" d="M279.6,77.5h1.3v8.2h-1.3V77.5z M281.7,75.8l-1.2,1.3h-0.9l0.8-1.3H281.7z"/>
</g>
<g>
	<path class="st0" d="M284.9,83.1h1.2l-0.6-4.2L284.9,83.1z M287.9,85.7h-1.3l-0.2-1.5h-1.6l-0.2,1.5h-1.2l1.3-8.2h1.9L287.9,85.7z"
		/>
</g>
<g>
	<rect x="5.9" y="17.8" class="st0" width="316.1" height="0.5"/>
</g>
<g>
	<path class="st0" d="M107.2,11.4v-1.3h-2.4V7.7h1.8V6.4h-1.8V4h2.4V2.7h-3.7v8.7H107.2z M112.8,8.4L112.6,8c-0.2-0.3-0.4-0.6-0.8-1
		c-0.1-0.1-0.3-0.3-0.6-0.5c-0.3-0.2-0.5-0.4-0.6-0.6c-0.3-0.4-0.5-0.8-0.5-1.2c0-0.3,0.1-0.5,0.2-0.6c0.1-0.2,0.3-0.3,0.6-0.3
		c0.2,0,0.4,0.1,0.5,0.2c0.2,0.2,0.3,0.5,0.3,0.8l1.3-0.2c0-0.4-0.1-0.7-0.3-1c-0.2-0.3-0.4-0.5-0.6-0.7c-0.3-0.2-0.7-0.3-1.2-0.3
		c-0.5,0-0.9,0.1-1.2,0.4c-0.5,0.4-0.8,1-0.8,1.8c0,0.4,0.1,0.8,0.3,1.2c0.2,0.3,0.5,0.7,0.9,1.1c0.5,0.5,0.9,0.9,1.2,1.1
		c0.3,0.4,0.5,0.7,0.5,1.1c0,0.2,0,0.4-0.1,0.6c-0.2,0.3-0.4,0.4-0.7,0.4c-0.2,0-0.4-0.1-0.5-0.2c-0.2-0.2-0.3-0.6-0.4-1.1L108.7,9
		c0,0.5,0.1,0.9,0.3,1.2c0.2,0.4,0.4,0.6,0.7,0.9c0.3,0.3,0.8,0.4,1.3,0.4c0.3,0,0.5,0,0.7-0.1c0.4-0.1,0.7-0.3,0.9-0.6
		c0.3-0.4,0.5-0.9,0.5-1.6C113,9,112.9,8.7,112.8,8.4 M118.2,10.9c0.4-0.4,0.6-0.9,0.6-1.5V8.2h-1.4v1.2c0,0.2-0.1,0.4-0.2,0.5
		c-0.1,0.1-0.3,0.2-0.5,0.2c-0.2,0-0.4-0.1-0.5-0.2c-0.1-0.1-0.2-0.3-0.2-0.5V4.7c0-0.2,0.1-0.4,0.2-0.5c0.1-0.1,0.3-0.2,0.5-0.2
		c0.2,0,0.4,0.1,0.5,0.2c0.1,0.1,0.2,0.3,0.2,0.5v1h1.4v-1c0-0.6-0.2-1.1-0.6-1.5c-0.4-0.4-0.9-0.6-1.5-0.6c-0.6,0-1.1,0.2-1.5,0.6
		c-0.4,0.4-0.6,0.9-0.6,1.5v4.7c0,0.6,0.2,1.1,0.6,1.5c0.4,0.4,0.9,0.6,1.5,0.6C117.3,11.5,117.8,11.3,118.2,10.9 M124,10.9
		c0.4-0.4,0.6-0.9,0.6-1.5V2.7h-1.4v6.7c0,0.2-0.1,0.4-0.2,0.5c-0.1,0.1-0.3,0.2-0.5,0.2c-0.2,0-0.4-0.1-0.5-0.2
		c-0.1-0.1-0.2-0.3-0.2-0.5V2.7h-1.3v6.7c0,0.6,0.2,1.1,0.6,1.5c0.4,0.4,0.9,0.6,1.5,0.6C123.1,11.5,123.6,11.3,124,10.9
		 M130.1,11.4v-1.3h-2.4V7.7h1.8V6.4h-1.8V4h2.4V2.7h-3.7v8.7H130.1z M135.2,10.1h-2.3V2.7h-1.3v8.7h3.6V10.1z M139.7,9.4l0.3,2h1.4
		l-1.5-8.7h-1.8l-1.5,8.7h1.4l0.3-2H139.7z M139.5,8.1h-1l0.5-3.4L139.5,8.1z M151.5,2.7h-1.3v8.7h1.3V2.7z M153.2,2.7v8.7h1.3V5.8
		l1.8,5.6h1.4V2.7h-1.3v5.8l-1.7-5.8H153.2z M160.8,11.4h1.3V4h1.4V2.7h-4.1V4h1.4V11.4z M168.8,11.4v-1.3h-2.4V7.7h1.8V6.4h-1.8V4
		h2.4V2.7h-3.7v8.7H168.8z M170.3,2.7v8.7h1.3V8.1h0.8h0.1l0.8,3.3h1.4l-1-3.8c0.5-0.4,0.7-0.9,0.7-1.6V4.8c0-0.6-0.2-1.1-0.4-1.5
		c-0.3-0.4-0.9-0.6-1.6-0.6H170.3z M173.2,6.1c0,0.2-0.1,0.4-0.2,0.5c-0.1,0.2-0.3,0.2-0.5,0.2h-0.8V4h0.8c0.5,0,0.7,0.2,0.7,0.8
		V6.1z M176.4,2.7v8.7h1.3V5.8l1.8,5.6h1.4V2.7h-1.3v5.8l-1.7-5.8H176.4z M185.7,9.4l0.3,2h1.4l-1.5-8.7h-1.8l-1.5,8.7h1.4l0.3-2
		H185.7z M185.5,8.1h-1l0.5-3.4L185.5,8.1z M192.4,10.9c0.4-0.4,0.6-0.9,0.6-1.5V8.2h-1.4v1.2c0,0.2-0.1,0.4-0.2,0.5
		c-0.1,0.1-0.3,0.2-0.5,0.2c-0.2,0-0.4-0.1-0.5-0.2c-0.1-0.1-0.2-0.3-0.2-0.5V4.7c0-0.2,0.1-0.4,0.2-0.5c0.1-0.1,0.3-0.2,0.5-0.2
		c0.2,0,0.4,0.1,0.5,0.2c0.1,0.1,0.2,0.3,0.2,0.5v1h1.4v-1c0-0.6-0.2-1.1-0.6-1.5c-0.4-0.4-0.9-0.6-1.5-0.6c-0.6,0-1.1,0.2-1.5,0.6
		s-0.6,0.9-0.6,1.5v4.7c0,0.6,0.2,1.1,0.6,1.5c0.4,0.4,0.9,0.6,1.5,0.6C191.5,11.5,192,11.3,192.4,10.9 M196,2.7h-1.3v8.7h1.3V2.7z
		 M198.3,3.2c-0.4,0.4-0.6,0.9-0.6,1.5v4.7c0,0.6,0.2,1.1,0.6,1.5c0.4,0.4,0.9,0.6,1.5,0.6c0.6,0,1.1-0.2,1.5-0.6
		c0.4-0.4,0.6-0.9,0.6-1.5V4.7c0-0.6-0.2-1.1-0.6-1.5s-0.9-0.6-1.5-0.6C199.2,2.6,198.7,2.8,198.3,3.2 M200.5,9.4
		c0,0.2-0.1,0.4-0.2,0.5c-0.1,0.1-0.3,0.2-0.5,0.2c-0.2,0-0.4-0.1-0.5-0.2c-0.2-0.1-0.2-0.3-0.2-0.5V4.6c0-0.2,0.1-0.4,0.2-0.5
		c0.1-0.1,0.3-0.2,0.5-0.2c0.2,0,0.4,0.1,0.5,0.2c0.1,0.1,0.2,0.3,0.2,0.5V9.4z M203.6,2.7v8.7h1.3V5.8l1.8,5.6h1.4V2.7h-1.3v5.8
		l-1.7-5.8H203.6z M212.9,9.4l0.3,2h1.4l-1.5-8.7h-1.8l-1.5,8.7h1.4l0.3-2H212.9z M212.7,8.1h-1l0.5-3.4L212.7,8.1z M219.8,10.1
		h-2.3V2.7h-1.3v8.7h3.6V10.1z"/>
</g>
<g>
	<path class="st0" d="M36.5,65.9L24.4,28.1c-0.2-0.6-0.5-1.1-0.8-1.3c-0.3-0.2-0.8-0.3-1.4-0.3h0H18h0c-0.6,0-1,0.1-1.4,0.3
		c-0.3,0.2-0.6,0.7-0.8,1.3L3.7,65.9C3.4,67,3.8,67.6,5,67.6h3c1.1,0,1.8-0.5,2.1-1.5l9.5-32c0.1-0.4,0.3-0.7,0.6-0.7
		c0.3,0,0.5,0.2,0.6,0.7l9.5,32c0.3,1,1,1.5,2.1,1.5h3C36.4,67.6,36.8,67,36.5,65.9"/>
</g>
<g>
	<path class="st0" d="M319.6,65.9l-12.1-37.8c-0.2-0.6-0.5-1.1-0.8-1.3c-0.3-0.2-0.8-0.3-1.4-0.3h0h-4.2h0c-0.6,0-1,0.1-1.4,0.3
		c-0.3,0.2-0.6,0.7-0.8,1.3l-12.1,37.8c-0.3,1.1,0.1,1.7,1.3,1.7h3c1.1,0,1.8-0.5,2.1-1.5l3.3-11.3h13.5l3.3,11.3
		c0.3,1,1,1.5,2.1,1.5h3C319.4,67.6,319.9,67,319.6,65.9 M308.3,49.4H298l4.5-15.3c0.1-0.4,0.3-0.7,0.6-0.7c0.3,0,0.5,0.2,0.6,0.7
		L308.3,49.4z M282.4,63.5c0.3-0.3,0.5-0.7,0.5-1.2c0-0.5-0.1-0.9-0.5-1.3l-1.2-1.2c-0.4-0.4-0.8-0.6-1.3-0.5
		c-0.5,0-0.9,0.2-1.2,0.5c-0.8,0.7-1.8,1.4-3,2c-1.2,0.7-2.7,1-4.5,1c-2.5,0-4.5-0.8-6-2.5c-1.4-1.7-2.1-3.9-2.1-6.6V40.4
		c0-1.2,0.2-2.4,0.5-3.5c0.4-1.1,0.9-2.1,1.6-2.9c0.7-0.8,1.6-1.5,2.5-1.9c1-0.5,2.1-0.7,3.4-0.7c1.9,0,3.3,0.3,4.4,1
		c1.1,0.6,1.9,1.2,2.4,1.7c0.5,0.4,0.9,0.7,1.3,0.6c0.4,0,0.7-0.2,1.1-0.6l1.4-1.4c0.8-0.8,0.8-1.7,0-2.5c-0.4-0.4-1-0.9-1.7-1.4
		c-0.7-0.5-1.4-1-2.3-1.4c-0.9-0.4-1.9-0.7-3-1c-1.1-0.3-2.3-0.4-3.6-0.4c-2,0-3.8,0.4-5.5,1.1c-1.7,0.7-3.2,1.7-4.4,3
		c-1.2,1.3-2.2,2.8-2.9,4.6c-0.7,1.8-1.1,3.7-1.1,5.8v13.3c0,2.1,0.4,4.1,1.1,5.9c0.7,1.8,1.7,3.3,2.9,4.6c1.2,1.3,2.7,2.3,4.4,3
		c1.7,0.7,3.5,1.1,5.5,1.1c2.7,0,5-0.5,6.7-1.4C279.6,65.9,281.1,64.8,282.4,63.5 M250.3,67.1c0.3-0.3,0.5-0.8,0.5-1.3V28.3
		c0-0.6-0.2-1-0.5-1.3c-0.3-0.3-0.8-0.5-1.3-0.5h-2.1c-0.6,0-1,0.2-1.3,0.5c-0.3,0.3-0.5,0.8-0.5,1.3v25c0,0.3-0.1,0.5-0.3,0.5
		c-0.2,0-0.4-0.1-0.6-0.3L229.4,28c-0.3-0.6-0.7-1-1.1-1.2c-0.4-0.2-0.9-0.3-1.5-0.3h-2.4c-0.6,0-1,0.2-1.3,0.5
		c-0.3,0.3-0.5,0.8-0.5,1.3v37.5c0,0.6,0.2,1,0.5,1.3c0.3,0.3,0.8,0.5,1.3,0.5h2.1c0.6,0,1-0.2,1.3-0.5c0.3-0.3,0.5-0.8,0.5-1.3
		V39.1c0-0.3,0.1-0.5,0.3-0.6c0.2-0.1,0.4,0,0.6,0.4l15.4,26.9c0.4,0.6,0.7,1.1,1.1,1.4c0.3,0.3,0.8,0.5,1.4,0.5h1.8
		C249.5,67.6,249.9,67.4,250.3,67.1 M216,65.9l-12-37.8c-0.2-0.6-0.5-1.1-0.8-1.3c-0.3-0.2-0.8-0.3-1.4-0.3h0h-4.2h0
		c-0.6,0-1,0.1-1.4,0.3c-0.3,0.2-0.6,0.7-0.8,1.3l-12,37.8c-0.3,1.1,0.1,1.7,1.3,1.7h3c1.1,0,1.8-0.5,2-1.5l3.3-11.3h13.5l3.3,11.3
		c0.3,1,1,1.5,2,1.5h3C215.9,67.6,216.4,67,216,65.9 M204.8,49.4h-10.2l4.5-15.3c0.1-0.4,0.3-0.7,0.6-0.7c0.3,0,0.5,0.2,0.6,0.7
		L204.8,49.4z M176.2,67.1c0.3-0.3,0.5-0.8,0.5-1.3V28.3c0-0.6-0.2-1-0.5-1.3c-0.3-0.3-0.8-0.5-1.3-0.5h-2.1c-0.6,0-1,0.2-1.3,0.5
		c-0.3,0.3-0.5,0.8-0.5,1.3v37.5c0,0.6,0.2,1,0.5,1.3c0.3,0.3,0.8,0.5,1.3,0.5h2.1C175.4,67.6,175.8,67.4,176.2,67.1 M163.9,60.7
		c0.6-1.4,0.9-2.9,0.9-4.6c0-2-0.5-3.7-1.4-5.3c-0.9-1.6-2.2-3-3.9-4.2c-0.4-0.4-0.5-0.7-0.1-1.1c0.9-1,1.7-2.2,2.2-3.4
		c0.5-1.2,0.8-2.6,0.8-4.1c0-1.6-0.3-3.1-0.9-4.5c-0.6-1.4-1.5-2.6-2.5-3.7c-1.1-1-2.3-1.8-3.8-2.4c-1.4-0.6-3-0.9-4.6-0.9h-10.3
		c-0.6,0-1,0.2-1.3,0.5c-0.3,0.3-0.5,0.8-0.5,1.3v37.5c0,0.6,0.2,1,0.5,1.3c0.3,0.3,0.8,0.5,1.3,0.5H153c1.6,0,3.1-0.3,4.6-0.9
		c1.4-0.6,2.7-1.4,3.8-2.4C162.4,63.3,163.2,62.1,163.9,60.7 M156.6,38c0,1.1-0.2,2-0.6,2.8c-0.4,0.8-0.9,1.5-1.5,2
		c-0.6,0.5-1.3,0.9-2.1,1.1c-0.8,0.3-1.5,0.4-2.2,0.4h-5.3c-0.4,0-0.6-0.2-0.6-0.6V32.5c0-0.4,0.2-0.6,0.6-0.6h5.3
		c0.7,0,1.5,0.1,2.2,0.3c0.8,0.2,1.5,0.6,2.1,1.1c0.6,0.5,1.1,1.1,1.5,1.9C156.4,35.9,156.6,36.9,156.6,38 M159.1,56.1
		c0,1.1-0.2,2-0.6,2.8c-0.4,0.8-0.9,1.4-1.5,1.9c-0.6,0.5-1.3,0.8-2.1,1.1c-0.8,0.2-1.5,0.3-2.2,0.3h-7.7c-0.4,0-0.6-0.2-0.6-0.6
		V50.4c0-0.4,0.2-0.6,0.6-0.6h7.7c0.7,0,1.5,0.1,2.2,0.4c0.8,0.3,1.5,0.6,2.1,1.1c0.6,0.5,1.1,1.2,1.5,2
		C158.9,54.1,159.1,55,159.1,56.1 M131.3,67.1c0.3-0.3,0.5-0.8,0.5-1.3V64c0-0.6-0.2-1-0.5-1.3c-0.3-0.3-0.8-0.5-1.3-0.5h-16.6
		c-0.4,0-0.6-0.2-0.6-0.6V50.1c0-0.4,0.2-0.6,0.6-0.6h14.2c0.6,0,1-0.2,1.3-0.5c0.3-0.3,0.5-0.8,0.5-1.3v-1.8c0-0.6-0.2-1-0.5-1.3
		s-0.8-0.5-1.3-0.5h-14.2c-0.4,0-0.6-0.2-0.6-0.6V32.5c0-0.4,0.2-0.6,0.6-0.6h15.4c0.6,0,1-0.2,1.3-0.5c0.3-0.3,0.5-0.8,0.5-1.3
		v-1.8c0-0.6-0.2-1-0.5-1.3c-0.3-0.3-0.8-0.5-1.3-0.5h-20c-0.6,0-1,0.2-1.3,0.5s-0.5,0.8-0.5,1.3v37.5c0,0.6,0.2,1,0.5,1.3
		s0.8,0.5,1.3,0.5h21.2C130.5,67.6,131,67.4,131.3,67.1 M100,31.4c0.3-0.3,0.5-0.8,0.5-1.3v-1.8c0-0.6-0.2-1-0.5-1.3
		s-0.8-0.5-1.3-0.5H73.6c-0.6,0-1,0.2-1.3,0.5s-0.5,0.8-0.5,1.3v1.8c0,0.6,0.2,1,0.5,1.3s0.8,0.5,1.3,0.5h9.1c0.4,0,0.6,0.2,0.6,0.6
		v33.3c0,0.6,0.2,1,0.5,1.3c0.3,0.3,0.8,0.5,1.3,0.5h2.1c0.6,0,1-0.2,1.3-0.5c0.3-0.3,0.5-0.8,0.5-1.3V32.5c0-0.4,0.2-0.6,0.6-0.6
		h9.1C99.2,31.9,99.7,31.7,100,31.4 M69,67c0.2-0.4,0.2-0.9-0.1-1.5l-7.3-15.5c-0.4-0.8-0.2-1.4,0.4-1.8c1.7-0.9,3.1-2.3,4.2-4.1
		c1.1-1.8,1.6-3.8,1.6-6.1c0-1.6-0.3-3.1-0.9-4.5c-0.6-1.4-1.4-2.6-2.4-3.7c-1-1-2.2-1.8-3.7-2.4c-1.4-0.6-2.9-0.9-4.5-0.9H44
		c-0.6,0-1,0.2-1.3,0.5c-0.3,0.3-0.5,0.8-0.5,1.3v37.5c0,0.6,0.2,1,0.5,1.3c0.3,0.3,0.8,0.5,1.3,0.5h2.1c0.6,0,1-0.2,1.3-0.5
		s0.5-0.8,0.5-1.3V50.4c0-0.4,0.2-0.6,0.6-0.6h5.7c0.6,0,1,0.3,1.3,0.8L62.7,66c0.5,1.1,1.2,1.6,2.2,1.6h2.8
		C68.4,67.6,68.8,67.4,69,67 M60.4,42.6c-0.6,0.6-1.2,1-2,1.3c-0.7,0.3-1.5,0.5-2.3,0.5h-7.4c-0.4,0-0.6-0.2-0.6-0.6V32.5
		c0-0.4,0.2-0.6,0.6-0.6h7.4c0.8,0,1.6,0.1,2.3,0.4c0.7,0.3,1.4,0.7,2,1.2c0.6,0.5,1,1.2,1.4,1.9c0.3,0.7,0.5,1.6,0.5,2.5
		c0,0.9-0.2,1.8-0.5,2.6C61.4,41.3,60.9,42,60.4,42.6"/>
</g>
<g>
	<path class="st0" d="M234.8,77.4c1.3,0,1.9,0.8,1.9,2.1v0.3h-1.2v-0.3c0-0.6-0.2-0.8-0.6-0.8c-0.4,0-0.6,0.2-0.6,0.8
		c0,1.7,2.5,2,2.5,4.4c0,1.3-0.7,2.1-1.9,2.1c-1.3,0-1.9-0.8-1.9-2.1v-0.5h1.2v0.6c0,0.6,0.3,0.8,0.7,0.8c0.4,0,0.7-0.2,0.7-0.8
		c0-1.7-2.5-2-2.5-4.4C232.9,78.2,233.6,77.4,234.8,77.4"/>
</g>
</svg>
