<?xml version="1.0" encoding="UTF-8"?><svg id="Layer_1" xmlns="http://www.w3.org/2000/svg" viewBox="0 0 2078.16 255.35"><defs><style>.cls-1{fill:#fff;}</style></defs><path class="cls-1" d="M702.9,135.55v-42.61c0-24.43,0-49.69,.05-74.53,0-2.81-1.08-4.12-3.76-4.53-12.15-1.84-24.53-1.81-37.85,.07-2.67,.38-3.81,1.65-3.8,4.26,.02,15.66,0,32-.05,48.56-.03,8.68-.09,20.13-.29,31.75-.01,.78-.15,1.58-.34,2.42-2.08-4.19-4.17-8.38-6.25-12.57-5.91-11.88-12.03-24.17-17.93-36.3-2.89-5.94-5.72-12.04-8.46-17.94-2.3-4.95-4.67-10.07-7.07-15.08-.69-1.43-2.57-2.38-4.02-2.66-11.43-2.14-23.15-2.55-34.83-1.21-2.37,.27-3.57,1.56-3.66,3.94-.26,6.63-.6,13.37-.94,19.89-.68,13.25-1.38,26.96-1.41,40.46-.08,36.09,.19,72.79,.44,108.27,.1,13.92,.2,27.84,.28,41.76,0,.56,.09,1.08,.16,1.5,.02,.14,.05,.27,.06,.39l.15,1.21,1.22,.1c1.58,.12,3.13,.27,4.66,.41,3.46,.32,6.73,.61,10.09,.71,9.33,.28,16.97,.35,24.05,.21,4.74-.09,5.27-1.17,5.31-5.37v-.35c.35-33.16,.7-62.23,1.05-88.89,.03-1.91,.18-3.86,.35-5.78,.88,2.47,1.74,4.98,2.58,7.42,1.98,5.79,4.02,11.77,6.5,17.49,6.84,15.77,13.98,31.72,20.88,47.15,3.73,8.35,7.47,16.7,11.18,25.06,.98,2.21,2.59,2.58,4.18,2.65,2.16,.1,4.32,.24,6.48,.39,3.29,.22,6.69,.44,10.06,.51,1.11,.02,2.22,.03,3.34,.03,4.14,0,8.29-.13,12.33-.25l1.87-.06c1.46-.04,3.91-.69,3.82-4.54-.26-11.3-.39-20.52-.41-29.01-.03-21.64-.03-43.29-.02-64.93Z"/><path class="cls-1" d="M444.59,73.07c-2.54,0-5.07,0-7.61,0-7.09,0-14.42-.01-21.63-.11-2.62-.02-4.03,.93-4.96,3.33-8.13,21.16-16.47,42.66-24.53,63.44l-4.93,12.72-4.01-10.51c-8.42-22.04-16.83-44.08-25.21-66.13-.56-1.49-1.58-3.17-4.37-2.99-1.55,.1-3.1,.08-4.73,.04-.7-.01-1.39-.02-2.09-.03l-26.94-.06-13.37,145.45,35.49,.08,6.62-80.74c4.79,13.81,9.58,27.63,14.37,41.45l2.6,7.52c3.21,9.27,6.52,18.86,9.84,28.27,.38,1.09,1.64,2.73,3.12,2.76,4.71,.11,9.53,.12,14.18,.12h5.09l28.09-79.81,6.27,80.65,35.5,.08-12.71-145.52h-4.08Z"/><path class="cls-1" d="M892.2,47.63c-4.92-11.15-12.49-18.97-23.15-23.9-18.2-8.42-37.54-10.32-59.14-5.84-2.84,.59-5.63,1.46-8.33,2.3-1.34,.42-2.68,.83-4.02,1.22-10.65,3.03-18.36,10.23-24.26,22.64-4.24,8.91-6.54,19.11-7.24,32.09-.69,12.85-1.06,25.94-1.33,35.49-.1,3.41-.18,6.45-.27,8.97v.12c.38,8.31,.72,15.92,1.03,23.05,.72,16.24,1.33,30.27,2.11,44.11,.47,8.47,1.97,15.73,4.57,22.19,5.3,13.14,13.91,21.03,26.32,24.1,9.19,2.27,18.24,3.41,27.1,3.41,12.4,0,24.44-2.22,36-6.66,7.19-2.76,16.21-7.04,22.22-15.77,4.18-6.08,7.22-13.38,9.31-22.31,3.27-14.04,4-28.25,4.56-44.03,.34-9.54,.39-19.24,.44-28.62,.03-4.57,.05-9.15,.11-13.72,.04-2.96,.1-5.91,.17-8.87,.13-5.63,.26-11.46,.17-17.2-.21-12.95-2.24-23.36-6.38-32.76Zm-34.8,83.69l-.33,10.35c-.31,9.8-.62,19.6-.96,29.41-.13,3.9-1.83,7.53-5.52,11.77-4.41,5.08-11.35,8.23-19.04,8.63-7.82,.4-15.2-2.05-20.24-6.75-3.19-2.97-5.12-6.88-5.73-11.61-.54-4.15-.99-8.39-1.42-12.48-.48-4.54-.98-9.24-1.61-13.86-1.74-12.9-2.06-26.7-.97-42.18v-.11c.56-7.88,1.13-16.02,4.45-23.33,4-8.8,9.99-14.98,17.82-18.36,3.32-1.44,6.53-2.14,9.56-2.14,7.26,0,13.48,4.06,17.77,11.87,2.56,4.66,3.97,9.77,4.33,15.62,.1,1.63,.21,3.26,.31,4.89,.34,5.27,.69,10.71,.85,16.06,.14,4.79,.1,9.67,.07,14.4-.01,2.11-.03,4.23-.03,6.34v1.49h.68Z"/><path class="cls-1" d="M1082.77,17.35l-1.26-.15c-32.23-3.76-64.8-3.45-96.31-3.15-10.71,.1-21.79,.21-32.67,.15h-1.31l-.19,1.29c-1.18,8.18-1.04,36.44,.22,45.82,.62,4.58,1.34,5.22,5.95,5.34,1.5,.04,3.01,.03,4.52,.03,2.37,0,4.81-.02,7.18,.15,6.19,.44,12.32,1.12,18.07,1.78,1.51,.17,2.28,.71,2.35,3.14,.23,8.75,.53,17.63,.83,26.23,.5,14.45,1.01,29.4,1.16,44.1,.21,19.78,.07,39.9-.07,59.35-.06,8.59-.12,17.19-.15,25.78,0,1.06,0,2.11,0,3.08v2.82l9.46-.17c5.93-.11,11.71-.22,17.49-.29,1.61-.02,3.22-.02,4.83-.03,6.66,0,13.55-.02,20.39-1.34l1.22-.23v-2.12c0-.56,0-1.06,0-1.56-.08-4.73-.16-9.46-.24-14.19-.17-9.88-.34-19.75-.47-29.63-.44-33.94-.88-69.58-1.3-105.94-.02-1.67,.07-3.39,.16-5.05,.07-1.28,.14-2.59,.16-3.91,.02-1,.02-1.08,1.22-1.11,3.32-.07,6.69-.23,9.94-.39,8.49-.41,17.27-.83,25.97,.34l1.48,.2,.2-1.48c1.88-13.8,2.25-28.48,1.21-47.6l-.07-1.26Z"/><path class="cls-1" d="M285.58,215.6c-.15-.52-.28-.96-.47-1.42l-12.42-30.98c-14.41-35.94-28.82-71.88-43.21-107.83-.79-1.98-2.02-2.82-4.1-2.82h-.05c-10.07,.07-18.22,.04-25.65-.07-2.43-.07-3.86,.93-4.8,3.24-14.86,36.67-29.74,73.33-44.63,109.99l-11.35,27.96c-.19,.47-.36,.96-.53,1.47l-.86,2.45,1.81,.26c.16,.02,.3,.05,.42,.07,.28,.05,.54,.09,.85,.09l8.66,.02c7.7,.02,15.66,.03,23.49,.1,2.25,.04,3.1-1.33,3.59-2.65,1.15-3.12,2.31-6.24,3.48-9.36,1.92-5.15,3.9-10.47,5.81-15.73,.3-.83,.39-.88,1.28-.88,15.84,.09,32.28,.13,50.25,.12,.99-.03,1.06,.08,1.33,.82,1.49,4.2,3.05,8.44,4.56,12.55,1.44,3.92,2.93,7.96,4.35,11.96,.85,2.39,2.19,3.37,4.61,3.37h.1c6.62-.07,13.35-.04,19.86-.02,2.38,0,4.76,.02,7.14,.03l7.36,.02-.61-1.95c-.09-.29-.17-.55-.24-.79Zm-87.31-57.69l13.92-36.11,13.75,36.17-27.67-.06Z"/><rect class="cls-1" x="-40.73" y="127.33" width="145.31" height="35.19" transform="translate(-113.07 176.52) rotate(-89.87)"/><path class="cls-1" d="M1570.12,215.77c-.07-.48-.13-.85-.29-1.26l-3.22-8.02c-17.62-43.83-35.84-89.16-53.89-133.68-.72-1.77-3.33-3.5-5.37-3.57-3.89-.13-7.84-.12-11.65-.1-3.8,.01-7.72,.03-11.56-.1-4-.13-6.15,1.31-7.68,5.14-13.83,34.66-28,69.85-41.71,103.88l-11.39,28.29c-.86,2.14-1.7,4.28-2.61,6.59l-2.18,5.54h2.21c2.48,0,4.93,0,7.37,0,9.16,.01,17.81,.02,26.59-.14,1.98-.04,3.65-2.68,4.14-3.96,1.43-3.7,2.83-7.48,4.17-11.14,1.48-4.02,3.01-8.17,4.59-12.22,.29-.73,1.31-1.65,1.65-1.72,14.53-.14,29.35-.13,43.67-.12h8.68c.67,1.83,1.34,3.64,2,5.45,2.52,6.88,4.9,13.38,7.46,19.99,.58,1.5,2.46,3.7,4.32,3.73,6.28,.11,12.46,.14,18.81,.14,2.39,0,4.81,0,7.27,0,2.42,0,4.86,0,7.3,0h1.8l-.33-1.77c-.07-.39-.12-.7-.16-.94Zm-61.01-59.08h-28.29l14.12-37.02,14.17,37.02Z"/><path class="cls-1" d="M1234.01,69.77c-14.02-.56-28.28-.56-42.07-.57-5.63,0-11.26,0-16.89-.04h-.03c-.64,0-1.23,.14-1.74,.27-.19,.05-.38,.09-.57,.13l-1.22,.23V218.17h36.01v-53.99c.16,0,.32,0,.47,0,1.21,0,2.26,.02,3.3-.02,2.61-.08,5.28-.1,7.86-.11,5.94-.03,12.08-.05,18.04-.95,18.31-2.76,30.97-12.46,36.6-28.04,6.83-18.87,4.73-35.43-6.23-49.21-7.92-9.96-19.52-15.52-33.54-16.08Zm-26.36,29.25c6.58-.64,14.94-.8,22.77,2.76,5.99,2.73,8.79,7.48,8.81,14.96,.02,7.34-2.8,12.08-8.88,14.94-6.73,3.16-13.91,2.98-21.52,2.78-.39-.01-.79-.02-1.18-.03v-35.41Z"/><path class="cls-1" d="M2051,176.85c-15.93,8.23-23.95,9.8-39,7.61-14.67-2.14-26.78-11.39-32.38-24.74-5.58-13.31-3.71-28.38,5.02-40.29,8.89-12.14,21.76-17.53,40.51-16.95,8.35,.26,16.78,2.98,25.77,8.33l1.39,.83,15.36-30.87-1.19-.71c-1.04-.62-2.04-1.28-3-1.91-2.11-1.38-4.11-2.69-6.35-3.61-27.8-11.37-52.92-10.89-76.82,1.46-23.44,12.11-38.89,33.1-42.38,57.59-3.39,23.77,5.15,47.37,23.43,64.73,16.03,15.23,35,22.88,56.64,22.88,8.24,0,16.87-1.11,25.87-3.33,8.34-2.06,15.74-5.5,22.63-10.53l1.02-.75-15.19-30.43-1.35,.7Z"/><path class="cls-1" d="M1691.18,146.85c-7.17-6.57-15-11.76-23.93-15.86-7.93-3.64-15.91-7.63-23.72-11.83-4.19-2.26-6.01-5.4-5.4-9.32,.72-4.63,3.42-7.55,8.25-8.94,5.83-1.68,11.93-1.44,18.13,.71,4.31,1.49,8.47,3.23,12.86,5.07,1.92,.8,3.86,1.62,5.82,2.41l1.28,.52,14.2-28.09-.97-.76c-9.67-7.52-20.42-10.53-29.66-12.48-16.17-3.42-29.88-1.81-41.92,4.92-14.28,7.99-23.36,22.37-23.7,37.53-.33,14.7,7.62,28.17,21.8,36.96,3.25,2.01,6.72,3.73,10.08,5.38,1.73,.85,3.51,1.73,5.23,2.64,1.54,.81,3.08,1.61,4.62,2.41,4.35,2.25,8.84,4.58,13.1,7.09,4.61,2.72,6.54,6.58,5.72,11.46-.85,5.08-3.95,8.11-9.77,9.55-8.54,2.11-16.76,1.15-24.42-2.85-4.77-2.49-9.35-5.12-14.2-7.9-2.12-1.22-4.26-2.45-6.43-3.67l-1.28-.72-17.53,29.59,1,.82c.5,.41,.96,.81,1.4,1.18,.89,.77,1.74,1.49,2.66,2.12,14.8,10.09,29.84,15.4,45.98,16.22,1.78,.09,3.53,.14,5.25,.14,14.7,0,27.34-3.3,38.51-10.03,9.51-5.73,16.81-18.7,18.17-32.28,1.29-12.85-2.67-24.21-11.14-31.96Z"/><polygon class="cls-1" points="1729.13 101.53 1763.52 101.53 1763.52 218.29 1799.78 218.29 1799.78 101.33 1834.12 101.33 1834.12 69.43 1729.13 69.43 1729.13 101.53"/><polygon class="cls-1" points="1347.98 69.5 1312.19 69.5 1312.19 218.18 1398.14 218.18 1398.14 186.03 1347.98 186.03 1347.98 69.5"/><rect class="cls-1" x="1866.7" y="69.43" width="35.41" height="148.94"/><path class="cls-1" d="M840.21,138.51c-4.12-2.84-9.33-3.55-14.67-1.99-8.37,2.44-13.52,11.74-11.97,21.63,1.46,9.3,7.6,14.24,17.76,14.29,.89,.17,1.76,.25,2.6,.25,5.29,0,9.59-3.33,12.3-9.61,1.37-3.16,2-6.87,1.74-10.17-.48-6.09-3.3-11.34-7.75-14.41Z"/></svg>