<?xml version="1.0" encoding="utf-8"?>
<!-- Generator: Adobe Illustrator 22.1.0, SVG Export Plug-In . SVG Version: 6.00 Build 0)  -->
<svg version="1.1" id="Capa_1" xmlns="http://www.w3.org/2000/svg" xmlns:xlink="http://www.w3.org/1999/xlink" x="0px" y="0px"
	 viewBox="0 0 735.5 356.9" style="enable-background:new 0 0 735.5 356.9;" xml:space="preserve">
<title>Black Over Neon@2x</title>
<g id="Black-Over-Neon">
	<g id="PROFESSIONAL-KITCHEN" transform="translate(234.000000, 672.000000)">
		<path id="Shape" d="M-161.3-369.2h-10.8v27h4.2v-9.1h6.5c5.7,0,9.2-3.7,9.2-9C-152.1-365.6-155.6-369.2-161.3-369.2z
			 M-161.5-355.5h-6.4v-9.5h6.4c3.5,0,5.1,2,5.1,4.7C-156.4-357.5-158-355.5-161.5-355.5z"/>
		<path id="Shape_1_" d="M-132.3-342.2h5.2l-7.8-10.3c4.2-0.8,6.6-3.7,6.6-8.1c0-5.1-3.2-8.6-8.9-8.6H-148v27h4.2v-10.1h4.1
			L-132.3-342.2z M-143.9-365h6.1c3.5,0,5.1,1.8,5.1,4.4s-1.6,4.5-5.1,4.5h-6.1V-365z"/>
		<path id="Shape_2_" d="M-112.1-369.2c-7.9,0-14,5.8-14,13.5s6.1,13.5,14,13.5s14-5.8,14-13.5C-98.2-363.4-104.2-369.2-112.1-369.2
			z M-112.1-365.2c5.4,0,9.6,4,9.6,9.5c0,5.4-4.1,9.5-9.6,9.5s-9.6-4-9.6-9.5C-121.7-361.1-117.6-365.2-112.1-365.2z"/>
		<polygon id="Path" points="-77.1,-365 -77.1,-369.2 -95.1,-369.2 -95.1,-342.2 -90.7,-342.2 -90.7,-353.7 -78.1,-353.7 
			-78.1,-357.9 -90.7,-357.9 -90.7,-365 		"/>
		<polygon id="Path_1_" points="-56.1,-365 -56.1,-369.2 -74.1,-369.2 -74.1,-342.2 -56.1,-342.2 -56.1,-346.4 -69.7,-346.4 
			-69.7,-353.9 -57.1,-353.9 -57.1,-358 -69.7,-358 -69.7,-365 		"/>
		<path id="Path_2_" d="M-44.4-358c-4.3-0.9-5.8-1.5-5.8-3.4c0-2.3,1.9-3.8,5.4-3.8s5.3,1.4,6.1,3.6h4.3c-0.7-4.1-3.8-7.5-10.4-7.5
			c-5,0-9.6,2.7-9.6,7.9c0,4.9,4,6.3,9,7.4c4.9,1.1,7,1.5,7,3.9s-2,3.8-5.5,3.8c-4.1,0-6.2-1.6-7-4.6h-4.3c0.7,4.5,3.9,8.5,11.2,8.5
			c4.7,0,9.8-2.2,9.8-7.9C-34.1-355.2-37.7-356.6-44.4-358z"/>
		<path id="Path_3_" d="M-20.4-358c-4.3-0.9-5.8-1.5-5.8-3.4c0-2.3,1.9-3.8,5.4-3.8s5.3,1.4,6.1,3.6h4.3c-0.7-4.1-3.8-7.5-10.4-7.5
			c-5,0-9.6,2.7-9.6,7.9c0,4.9,4,6.3,9,7.4c4.9,1.1,7,1.5,7,3.9s-2,3.8-5.5,3.8c-4.1,0-6.2-1.6-7-4.6h-4.3c0.7,4.5,3.9,8.5,11.2,8.5
			c4.7,0,9.8-2.2,9.8-7.9C-10.1-355.2-13.7-356.6-20.4-358z"/>
		<polygon id="Path_4_" points="-8.1,-342.2 -3.1,-342.2 -3.1,-369.2 -8.1,-369.2 		"/>
		<path id="Shape_3_" d="M14.9-369.2c-7.9,0-14,5.8-14,13.5s6.1,13.5,14,13.5s14-5.8,14-13.5C28.8-363.4,22.8-369.2,14.9-369.2z
			 M14.9-365.2c5.4,0,9.6,4,9.6,9.5c0,5.4-4.1,9.5-9.6,9.5s-9.6-4-9.6-9.5C5.3-361.1,9.4-365.2,14.9-365.2z"/>
		<polygon id="Path_5_" points="49.6,-369.2 49.6,-357.9 50,-348.4 36.9,-369.2 31.9,-369.2 31.9,-342.2 36.1,-342.2 36.1,-353.5 
			35.7,-363.1 48.9,-342.2 53.9,-342.2 53.9,-369.2 		"/>
		<path id="Shape_4_" d="M78.3-342.2h4.5l-10.3-27H67l-10.3,27h4.5l2.7-7.3h11.5L78.3-342.2z M65.7-353.6l4.2-11.3l4.2,11.3H65.7z"
			/>
		<polygon id="Path_6_" points="90.3,-346.4 90.3,-369.2 85.9,-369.2 85.9,-342.2 102.9,-342.2 102.9,-346.4 		"/>
		<polygon id="Path_7_" points="135.9,-342.2 124.4,-356 135.4,-369.2 130.2,-369.2 120,-356.8 120,-369.2 115.9,-369.2 
			115.9,-342.2 120,-342.2 120,-355.1 130.7,-342.2 		"/>
		<polygon id="Path_8_" points="138.9,-342.2 143.9,-342.2 143.9,-369.2 138.9,-369.2 		"/>
		<polygon id="Path_9_" points="166.9,-369.2 146.9,-369.2 146.9,-365 154.8,-365 154.8,-342.2 159,-342.2 159,-365 166.9,-365 		
			"/>
		<path id="Path_10_" d="M181.4-342.2c6.1,0,10.9-3.7,12.5-9.1h-4.5c-1.4,3.1-4.3,5-8,5c-5.3,0-9.2-4-9.2-9.5c0-5.4,3.8-9.5,9.2-9.5
			c3.7,0,6.6,2,8,5h4.5c-1.6-5.4-6.5-9.1-12.5-9.1c-7.8,0-13.5,5.8-13.5,13.5C167.9-348,173.6-342.2,181.4-342.2z"/>
		<polygon id="Path_11_" points="215.6,-369.2 215.6,-358.2 202.1,-358.2 202.1,-369.2 197.9,-369.2 197.9,-342.2 202.1,-342.2 
			202.1,-354 215.6,-354 215.6,-342.2 219.9,-342.2 219.9,-369.2 		"/>
		<polygon id="Path_12_" points="241.9,-365 241.9,-369.2 223.9,-369.2 223.9,-342.2 241.9,-342.2 241.9,-346.4 228.3,-346.4 
			228.3,-353.9 240.9,-353.9 240.9,-358 228.3,-358 228.3,-365 		"/>
		<polygon id="Path_13_" points="263.6,-369.2 263.6,-357.9 264,-348.4 250.9,-369.2 245.9,-369.2 245.9,-342.2 250.1,-342.2 
			250.1,-353.5 249.7,-363.1 262.9,-342.2 267.9,-342.2 267.9,-369.2 		"/>
		<path id="Shape_5_" d="M293.7-369.2h-10.8v27h4.2v-9.1h6.5c5.7,0,9.2-3.7,9.2-9C302.9-365.6,299.4-369.2,293.7-369.2z
			 M293.5-355.5h-6.4v-9.5h6.4c3.5,0,5.1,2,5.1,4.7C298.6-357.5,297-355.5,293.5-355.5z"/>
		<path id="Shape_6_" d="M321.3-342.2h4.5l-10.3-27H310l-10.3,27h4.5l2.7-7.3h11.5L321.3-342.2z M308.7-353.6l4.2-11.3l4.2,11.3
			H308.7z"/>
		<path id="Shape_7_" d="M345.7-342.2h5.2l-7.8-10.3c4.2-0.8,6.6-3.7,6.6-8.1c0-5.1-3.2-8.6-8.9-8.6H330v27h4.2v-10.1h4.1
			L345.7-342.2z M334.1-365h6.2c3.5,0,5.1,1.8,5.1,4.4s-1.6,4.5-5.1,4.5h-6.2V-365z"/>
		<polygon id="Path_14_" points="370.9,-369.2 350.9,-369.2 350.9,-365 358.8,-365 358.8,-342.2 363,-342.2 363,-365 370.9,-365 		
			"/>
		<polygon id="Path_15_" points="391.6,-369.2 391.6,-357.9 392,-348.4 378.9,-369.2 373.9,-369.2 373.9,-342.2 378.1,-342.2 
			378.1,-353.5 377.7,-363.1 390.9,-342.2 395.9,-342.2 395.9,-369.2 		"/>
		<polygon id="Path_16_" points="417.9,-365 417.9,-369.2 399.9,-369.2 399.9,-342.2 417.9,-342.2 417.9,-346.4 404.3,-346.4 
			404.3,-353.9 416.9,-353.9 416.9,-358 404.3,-358 404.3,-365 		"/>
		<path id="Shape_8_" d="M437.7-342.2h5.2l-7.8-10.3c4.2-0.8,6.6-3.7,6.6-8.1c0-5.1-3.2-8.6-8.9-8.6H422v27h4.2v-10.1h4L437.7-342.2
			z M426.1-365h6.2c3.5,0,5.1,1.8,5.1,4.4s-1.6,4.5-5.1,4.5h-6.2V-365z"/>
	</g>
	<g id="AibÅ" transform="translate(196.000000, 387.000000)">
		<path id="Shape_9_" d="M-2.5-115.2h56.3l-79.5-220h-67l-79.5,220h56.3l15.7-45.6h82L-2.5-115.2z M-82.6-211.7l23.5-68.5l23.5,68.5
			L-82.6-211.7L-82.6-211.7z"/>
		<path id="Shape_10_" d="M93.4-369.2c-18.3,0-32.5,12.9-32.5,30.4c0,17.9,14.2,30.7,32.5,30.7c18.9,0,32.5-12.9,32.5-30.7
			C125.9-356.3,112.3-369.2,93.4-369.2z M66.6-115.2h53.6v-172.5H66.6V-115.2z"/>
		<path id="Shape_11_" d="M243.9-292.2c-21.8,0-38,9.4-49,23.6v-88.6h-53v241.9h53v-18.5c11.2,13.5,26.8,22.6,48.6,22.6
			c43.7,0,77.3-37.1,77.3-90.5C320.9-255.4,286.6-292.2,243.9-292.2z M231.1-162.1c-20.6,0-36.2-15.4-36.2-39.6
			c0-23.9,15.6-39.6,36.2-39.6s36.2,15.7,36.2,39.6C267.2-177.5,251.3-162.1,231.1-162.1z"/>
		<path id="Shape_12_" d="M466.7-357.2h-78.6v38.3h78.6V-357.2z M427.4-292.2c-50,0-90.5,38.3-90.5,90.5c0,51.8,39.9,90.5,90.5,90.5
			s90.5-38.3,90.5-90.5S477.4-292.2,427.4-292.2z M427.4-241.3c20.7,0,36.5,15.7,36.5,39.6c0,24.2-15.7,39.6-36.5,39.6
			c-20.4,0-36.5-15.4-36.5-39.6C390.9-225.6,406.6-241.3,427.4-241.3z"/>
	</g>
</g>
</svg>
