<?xml version="1.0" encoding="utf-8"?>
<!-- Generator: Adobe Illustrator 26.3.1, SVG Export Plug-In . SVG Version: 6.00 Build 0)  -->
<svg version="1.1" id="Capa_1" xmlns="http://www.w3.org/2000/svg" xmlns:xlink="http://www.w3.org/1999/xlink" x="0px" y="0px"
	 viewBox="0 0 314.9 141" style="enable-background:new 0 0 314.9 141;" xml:space="preserve">
<style type="text/css">
	.st0{fill:#FFFFFF;}
	.st1{fill-rule:evenodd;clip-rule:evenodd;fill:#FFFFFF;}
	.st2{fill-rule:evenodd;clip-rule:evenodd;fill:#D8592A;}
	.st3{fill:#D8592A;}
</style>
<g>
	<rect width="314.9" height="141"/>
	<g id="Group_00000000941722784421570050000009874741686651800491_" transform="translate(539.000000, 756.000000)">
		<g id="logotype_x2F_stolzl_00000087403343439591963930000001628965051045605526_" transform="translate(0.000000, 1.677725)">
			<g id="AibÅ_00000168807247305305606200000001501748905622325894_" transform="translate(0.000000, -0.000000)">
				<path id="Shape_00000079478170970845740290000005037800200342200989_" class="st0" d="M-459-631.8h24.9l-35.2-97.3h-29.6
					l-35.2,97.3h24.9l6.9-20.2h36.3L-459-631.8z M-494.5-674.5l10.4-30.3l10.4,30.3H-494.5z"/>
				<path id="Shape_00000047021997255469285130000006451052348316970421_" class="st0" d="M-416.5-744.2c-8,0-14.2,5.7-14.2,13.5
					c0,7.9,6.2,13.6,14.2,13.6c8.3,0,14.2-5.7,14.2-13.6C-402.2-738.5-408.2-744.2-416.5-744.2z M-428.2-631.8h23.5v-76.3h-23.5
					V-631.8z"/>
				<path id="Shape_00000006699186379594653590000003734682959519121286_" class="st0" d="M-349.8-709.9c-9.7,0-16.9,4.2-21.7,10.4
					v-39.1H-395v106.7h23.5v-8.2c5,6,11.9,10,21.6,10c19.4,0,34.3-16.4,34.3-39.9C-315.6-693.7-330.8-709.9-349.8-709.9z
					 M-355.4-652.6c-9.1,0-16-6.8-16-17.5c0-10.5,6.9-17.5,16-17.5s16,6.9,16,17.5C-339.4-659.4-346.4-652.6-355.4-652.6z"/>
				<path id="Shape_00000117638628330343046690000003496146637395997079_" class="st0" d="M-251.6-738.6h-34.7v16.9h34.7V-738.6z
					 M-269-709.9c-22.1,0-40,16.9-40,39.9c0,22.9,17.6,39.9,40,39.9c22.3,0,40-16.9,40-39.9C-229-693-246.9-709.9-269-709.9z
					 M-269-687.5c9.2,0,16.1,6.9,16.1,17.5c0,10.7-6.9,17.5-16.1,17.5c-9,0-16.1-6.8-16.1-17.5C-285-680.6-278.1-687.5-269-687.5z"
					/>
			</g>
		</g>
	</g>
</g>
</svg>
