<?xml version="1.0" encoding="utf-8"?>
<!-- Generator: Adobe Illustrator 26.3.1, SVG Export Plug-In . SVG Version: 6.00 Build 0)  -->
<svg version="1.1" id="Capa_1" xmlns="http://www.w3.org/2000/svg" xmlns:xlink="http://www.w3.org/1999/xlink" x="0px" y="0px"
	 viewBox="0 0 278.3 55.8" style="enable-background:new 0 0 278.3 55.8;" xml:space="preserve">
<style type="text/css">
	.st0{fill:#FFFFFF;}
</style>
<g>
	<g>
		<path class="st0" d="M39.6,54.1c-17.1,0-30.9-11.9-30.9-26.5S22.5,1.7,39.5,1.7c17.1,0,32.7,10.8,32.7,25.5
			C72.3,41.8,56.6,54.1,39.6,54.1 M40.5,0C18.1,0,0,12.5,0,27.9s18.1,27.9,40.5,27.9C62.8,55.8,81,43.3,81,27.9
			C80.9,12.5,62.8,0,40.5,0"/>
	</g>
	<g>
		<path class="st0" d="M49.8,28.5l-8.9,7.6c-1.1,1-2.1,1.6-2.8,2s-1.5,0.5-2.3,0.5c-1.3,0-2.4-0.4-3.3-1.2c-0.9-0.8-1.4-1.8-1.4-3
			c0-0.7,0.1-1.6,0.4-2.4c0.3-0.9,0.8-2.2,1.6-3.9c0.2-0.4,0.3-0.7,0.4-0.9c0.1-0.3,0.3-0.5,0.3-0.7l-0.1-0.1
			c-2.1,1.8-4.2,3.8-6.2,5.8c-1.7,1.7-3,2.9-4,3.8c-1,0.8-1.9,1.5-2.7,1.9c-0.8,0.4-1.5,0.6-2.2,0.6c-1.4,0-2.5-0.5-3.4-1.4
			c-0.8-0.9-1.2-2.2-1.2-3.8c0-2,1-5.3,3.1-9.8c1.9-4,3.3-6.7,4.3-8c1.5-1.9,3.2-2.8,5.2-2.8c1.2,0,2.1,0.2,2.9,0.7s1.2,1.1,1.2,1.8
			c0,1.4-0.6,3.4-1.9,6.3c-0.5,1-1,2.2-1.5,3.5l0.1,0.1c0.8-0.7,2.1-2,3.9-3.8c3.1-3.2,5.4-5.3,6.9-6.5c2-1.6,3.8-2.3,5.5-2.3
			c0.7,0,1.4,0.2,2.1,0.6c0.7,0.4,1.2,1,1.6,1.7c0.4,0.7,0.6,1.4,0.6,2.2c0,0.8-0.7,2.8-2,6c-0.3,0.7-0.5,1.2-0.6,1.6
			c-0.2,0.4-0.3,0.7-0.4,1l0.2,0.1c0.3-0.3,0.6-0.5,0.8-0.7s0.5-0.4,0.8-0.6s0.6-0.4,0.8-0.6c0.6-0.5,2.1-1.7,4.4-3.7
			c1.6-1.5,2.8-2.5,3.7-3s1.8-0.8,2.6-0.8c1.3,0,2.4,0.4,3.1,1.2c0.7,0.8,1.1,1.9,1.1,3.4c0,0.9-0.2,2.4-0.5,4.4
			c-0.3,2.3-0.5,4-0.6,5.3c-0.1,1.3-0.2,2.2-0.2,2.7c0,0.4,0,0.9,0.1,1.5s0.1,1.2,0.3,1.9c0.1,0.7,0.3,1.4,0.5,2.2
			c0.2,1,0.4,1.8,0.5,2.3c-0.2,0.7-0.7,1.2-1.7,1.7s-2,0.7-3.1,0.7c-1.8,0-3.4-0.7-5-2c-0.7-0.6-1.2-1.2-1.6-1.9
			c-0.4-0.6-0.6-1.4-0.8-2.2c-0.2-0.9-0.2-2-0.2-3.4c0-0.9,0.1-2.8,0.4-5.7l-0.1-0.1L49.8,28.5z"/>
	</g>
	<g>
		<path class="st0" d="M109.3,48.2h6.3V32.8h-9.9l-3.2,9.4l-3-9.4H89.4v15.4h6.3v-12l4.1,12h5.3l4.2-12V48.2z M130.6,42.9h-4.3
			l2.2-5.4L130.6,42.9z M140.1,48.2L133,32.8h-8.6l-7.6,15.4h7.3l0.6-1.5h7.4l0.6,1.5C132.7,48.2,140.1,48.2,140.1,48.2z
			 M156.2,40.5c0,0.4,0,0.8-0.1,1.1s-0.2,0.6-0.3,0.9l-1.8-1.6l-3.2,2.8l1.1,1h-0.3c-1.4,0-2.5-0.4-3.3-1.1
			c-0.8-0.7-1.1-1.7-1.1-3.1c0-1.3,0.4-2.4,1.1-3.1c0.8-0.7,1.9-1.1,3.3-1.1c1.4,0,2.6,0.4,3.3,1.1
			C155.8,38.1,156.2,39.1,156.2,40.5 M162.7,44c0.5-1,0.8-2.2,0.8-3.6c0-2.7-1-4.7-3-6.1c-2-1.4-4.9-2-8.8-2c-3.9,0-6.8,0.7-8.8,2
			c-2,1.4-3,3.4-3,6.1c0,2.7,1,4.7,3,6.1c2,1.4,5,2,9,2c0.8,0,1.6,0,2.3-0.1s1.3-0.1,1.9-0.3l3.3,3l3.2-2.7l-2.1-1.9
			C161.4,45.9,162.2,45.1,162.7,44 M187,40.9v-8.1h-6.8v7.5c0,1.6-0.3,2.6-0.8,3.2c-0.5,0.6-1.4,0.9-2.8,0.9s-2.2-0.3-2.8-0.9
			c-0.5-0.6-0.8-1.7-0.8-3.2v-7.5h-6.8v8.1c0,2.7,0.8,4.6,2.5,5.9c1.7,1.2,4.3,1.9,7.8,1.9c3.6,0,6.2-0.6,7.9-1.9
			C186.2,45.5,187,43.5,187,40.9 M190.8,48.2h6.8V32.8h-6.8V48.2z M214.9,37.7c0,0.6-0.2,1-0.6,1.3c-0.4,0.2-1.2,0.4-2.3,0.4h-3.7
			v-3.3h3.7c1.1,0,1.9,0.1,2.3,0.4C214.7,36.7,214.9,37.1,214.9,37.7 M222.3,37.8c0-1.6-0.7-2.8-2-3.7s-3.3-1.3-5.7-1.3h-13.1v15.4
			h6.8v-5.4h6.3c2.5,0,4.4-0.4,5.7-1.3S222.3,39.3,222.3,37.8 M234.8,42.9h-4.3l2.2-5.4L234.8,42.9z M236.9,48.2h7.4l-7.1-15.4h-8.6
			L221,48.2h7.3l0.6-1.5h7.4L236.9,48.2z M259.3,48.2h7.6V32.8h-6.6v8.9l-6.8-8.9h-8v15.4h6.4v-9L259.3,48.2z M274.7,40
			c-0.1,0.1-0.3,0.2-0.6,0.2h-0.4V39h0.5c0.3,0,0.5,0.1,0.6,0.2s0.2,0.2,0.2,0.4C274.9,39.7,274.9,39.9,274.7,40 M275.2,41
			c-0.1-0.1-0.2-0.1-0.4-0.2c0.4-0.1,0.7-0.3,0.8-0.5c0.2-0.2,0.3-0.5,0.3-0.8c0-0.4-0.1-0.7-0.4-0.9c-0.2-0.2-0.6-0.3-1.1-0.3h-1.9
			v4.5h1V41c0.1,0,0.1,0,0.1,0c0.1,0,0.3,0.1,0.4,0.2c0.1,0.2,0.4,0.7,0.8,1.5h1.2c-0.4-0.8-0.7-1.3-0.7-1.3
			C275.4,41.2,275.3,41.1,275.2,41 M277.5,40.5c0,0.9-0.3,1.7-0.9,2.4s-1.4,1-2.2,1c-0.9,0-1.6-0.3-2.2-1s-0.9-1.5-0.9-2.4
			s0.3-1.7,0.9-2.4s1.4-1,2.2-1c0.9,0,1.6,0.3,2.2,1C277.2,38.7,277.5,39.5,277.5,40.5 M278.3,40.5c0-0.7-0.2-1.4-0.5-2.1
			c-0.3-0.7-0.8-1.2-1.4-1.5c-0.6-0.4-1.2-0.6-1.9-0.6c-0.7,0-1.3,0.2-1.9,0.6c-0.6,0.4-1.1,0.9-1.4,1.5c-0.3,0.7-0.5,1.3-0.5,2.1
			s0.2,1.5,0.5,2.1s0.8,1.2,1.4,1.5c0.6,0.4,1.2,0.6,1.9,0.6c0.7,0,1.3-0.2,1.9-0.6c0.6-0.4,1.1-0.9,1.4-1.5
			C278.1,41.9,278.3,41.2,278.3,40.5"/>
	</g>
	<path class="st0" d="M98.1,12.9c0,0.6-0.3,1.2-0.8,1.9S96,16,94.9,16.5c-0.8,0.4-1.8,0.6-3.1,0.7c0.5-1.8,1.2-3.2,2.2-4.1
		c1-0.9,1.9-1.4,2.8-1.4c0.4,0,0.7,0.1,1,0.3C98,12.3,98.1,12.6,98.1,12.9 M99.1,15c0.6-0.7,0.8-1.3,0.8-2c0-0.5-0.2-0.9-0.7-1.3
		c-0.4-0.4-1.1-0.6-2-0.6c-1.3,0-2.5,0.4-3.7,1.1c-1.2,0.7-2.2,1.8-3,3.1s-1.2,2.6-1.2,3.9c0,1,0.3,1.8,1,2.6C91,22.6,92,23,93.2,23
		c1.8,0,3.8-1,5.8-3l-0.3-0.4c-1.1,0.9-2,1.4-2.5,1.7c-0.6,0.3-1.2,0.4-1.8,0.4c-0.8,0-1.4-0.3-2-0.8s-0.8-1.2-0.8-1.9
		c0-0.3,0-0.6,0.1-1.1c1.7-0.2,3.1-0.5,4-0.8C97.2,16.5,98.3,15.8,99.1,15 M117,21.5c0.5-0.6,0.9-1.1,1.1-1.4l-0.4-0.3
		c-0.4,0.6-0.9,1.1-1.4,1.5c-0.2,0.2-0.4,0.2-0.4,0.2c-0.1,0-0.2,0-0.2-0.1c-0.1-0.1-0.1-0.2-0.1-0.3c0-0.1,0.2-0.7,0.5-1.8l1.4-5
		c0.2-0.6,0.2-1.1,0.2-1.6c0-0.6-0.1-1-0.4-1.3s-0.6-0.4-1-0.4c-0.7,0-1.4,0.3-2.1,0.9c-1.2,1.1-2.6,2.9-4,5.5l0.9-3.3
		c0.2-0.7,0.3-1.2,0.3-1.6c0-0.4-0.1-0.8-0.4-1.1s-0.6-0.4-1.1-0.4s-1,0.1-1.4,0.4c-0.8,0.5-1.6,1.2-2.4,2.3
		c-0.5,0.7-1.2,1.7-1.9,3.1l1.7-5.8l-4.4,0.8l0.1,0.5c0.5-0.1,0.8-0.2,0.9-0.2c0.3,0,0.5,0.1,0.7,0.2c0.2,0.2,0.3,0.3,0.3,0.5
		c0,0.1,0,0.2-0.1,0.4l-0.3,1.1l-2.4,8.3h1.9c0.8-2.5,1.3-4.1,1.5-4.5c0.4-1,1.1-2,1.9-3.1s1.5-1.8,2-2.1c0.3-0.2,0.6-0.3,0.9-0.3
		c0.1,0,0.3,0.1,0.3,0.2c0.1,0.1,0.1,0.3,0.1,0.5c0,0.3-0.1,0.8-0.4,1.7l-2.2,7.8h1.9c0.6-2,1.2-3.7,1.9-5c1-2,2.1-3.5,3.3-4.6
		c0.4-0.4,0.8-0.6,1.1-0.6c0.1,0,0.2,0.1,0.3,0.2c0.1,0.1,0.1,0.3,0.1,0.5s0,0.3,0,0.5c0,0.1-0.2,0.6-0.4,1.6l-1.2,4.1
		c-0.4,1.2-0.5,2.1-0.5,2.5c0,0.3,0.1,0.6,0.3,0.8c0.2,0.2,0.5,0.3,0.8,0.3s0.7-0.1,1.1-0.3C116,22.5,116.4,22.1,117,21.5
		 M129.5,14.3c0,0.8-0.1,1.7-0.4,2.6c-0.3,0.9-0.6,1.6-0.9,2.3c-0.4,0.6-0.7,1.2-1.2,1.7c-0.4,0.5-0.9,0.9-1.4,1.1s-0.9,0.4-1.4,0.4
		c-0.9,0-1.6-0.3-2.1-1l1.1-3.8c0.4-1.4,1.1-2.7,2-3.7c0.9-1.1,1.8-1.6,2.7-1.6c0.4,0,0.8,0.2,1.1,0.5
		C129.3,13.1,129.5,13.6,129.5,14.3 M129.4,20.1c1.5-1.9,2.3-3.9,2.3-5.7c0-1-0.3-1.8-0.8-2.4s-1.2-0.9-2-0.9s-1.5,0.2-2.2,0.7
		c-0.7,0.4-1.6,1.2-2.5,2.3l0.9-3l-4.4,0.7v0.5c0.4-0.1,0.8-0.1,1-0.1c0.3,0,0.5,0.1,0.6,0.2c0.1,0.1,0.2,0.3,0.2,0.5
		s-0.1,0.6-0.3,1.3L119,25.4c-0.3,1.1-0.6,1.7-0.9,2c-0.3,0.2-0.8,0.4-1.6,0.4l-0.1,0.5h6l0.1-0.5c-0.7,0-1.1,0-1.3-0.1
		c-0.2-0.1-0.4-0.2-0.5-0.3c-0.1-0.1-0.1-0.3-0.1-0.5s0.1-0.6,0.3-1.3l0.9-3.3c0.4,0.2,0.8,0.4,1.1,0.5c0.3,0.1,0.7,0.1,1.1,0.1
		C126.1,23,127.9,22,129.4,20.1 M142.6,13.7c0.3-0.5,0.4-1.1,0.4-1.6c0-0.3-0.1-0.6-0.2-0.7c-0.2-0.2-0.4-0.2-0.7-0.2
		c-0.4,0-1,0.3-1.7,0.9c-1.2,1-2.6,2.8-4.1,5.4l1.8-6.2l-4.4,0.7l0.1,0.5c0.5-0.1,0.8-0.1,1-0.1c0.3,0,0.5,0.1,0.7,0.2
		c0.1,0.1,0.2,0.2,0.2,0.4c0,0.4-0.1,1.1-0.4,2l-2.4,8h2l0.4-1.6c0.1-0.2,0.3-0.8,0.6-1.8c0.3-0.7,0.6-1.3,0.9-1.9
		c0.8-1.3,1.6-2.4,2.3-3.3c0.5-0.5,0.8-0.9,1-1c0.1-0.1,0.3-0.1,0.4-0.1c0.1,0,0.2,0,0.2,0.1c0.1,0.1,0.1,0.2,0.1,0.3
		c0,0.3,0.1,0.5,0.3,0.6c0.1,0.1,0.3,0.2,0.5,0.2C142.1,14.3,142.4,14.1,142.6,13.7 M151.1,12.9c0,0.6-0.3,1.2-0.8,1.9
		s-1.3,1.2-2.4,1.7c-0.8,0.4-1.8,0.6-3.1,0.7c0.5-1.8,1.2-3.2,2.2-4.1c1-0.9,1.9-1.4,2.8-1.4c0.4,0,0.7,0.1,1,0.3
		C151,12.3,151.1,12.6,151.1,12.9 M152.1,15c0.6-0.7,0.8-1.3,0.8-2c0-0.5-0.2-0.9-0.7-1.3c-0.4-0.4-1.1-0.6-2-0.6
		c-1.3,0-2.5,0.4-3.7,1.1c-1.2,0.7-2.2,1.8-3,3.1s-1.2,2.6-1.2,3.9c0,1,0.3,1.8,0.9,2.6c0.6,0.8,1.6,1.2,2.8,1.2c1.8,0,3.8-1,5.8-3
		l-0.3-0.4c-1.1,0.9-2,1.4-2.5,1.7c-0.6,0.3-1.2,0.4-1.8,0.4c-0.8,0-1.4-0.3-2-0.8c-0.5-0.5-0.8-1.2-0.8-1.9c0-0.3,0-0.6,0.1-1.1
		c1.7-0.2,3.1-0.5,4-0.8C150.3,16.5,151.4,15.8,152.1,15 M162.1,15l0.8-3.9h-0.5c-0.2,0.4-0.6,0.6-0.9,0.6c-0.1,0-0.4-0.1-0.9-0.2
		c-0.4-0.2-0.7-0.3-0.8-0.3c-0.2,0-0.5-0.1-0.7-0.1c-0.9,0-1.7,0.3-2.3,0.9c-0.6,0.6-0.9,1.3-0.9,2.1c0,0.5,0.1,0.9,0.3,1.4
		s0.7,1.1,1.5,2s1.3,1.6,1.5,2.1c0.1,0.3,0.2,0.6,0.2,1c0,0.5-0.2,1-0.6,1.3c-0.4,0.4-0.9,0.5-1.5,0.5c-0.8,0-1.5-0.3-2-0.8
		s-0.8-1.5-0.8-2.8H154l-0.8,4.2h0.5c0.2-0.4,0.5-0.6,0.9-0.6c0.2,0,0.4,0.1,0.7,0.2c0.8,0.3,1.5,0.4,2.1,0.4c1.1,0,2.1-0.3,2.8-1
		s1.1-1.5,1.1-2.4c0-0.5-0.2-1.1-0.5-1.7s-1-1.5-2.2-2.7c-0.4-0.5-0.7-0.8-0.8-1.1s-0.2-0.5-0.2-0.8c0-0.4,0.2-0.8,0.5-1.1
		s0.7-0.4,1.3-0.4c0.7,0,1.2,0.3,1.7,0.8c0.4,0.5,0.7,1.4,0.7,2.5L162.1,15L162.1,15z M172.9,13.8c0,1.9-0.7,3.8-2.2,5.6
		c-1.1,1.4-2.1,2.1-3,2.1c-0.4,0-0.7-0.2-1-0.5s-0.4-0.8-0.4-1.4c0-1.2,0.3-2.4,1-3.9c0.7-1.4,1.5-2.5,2.3-3.2
		c0.6-0.5,1.2-0.8,1.7-0.8s0.9,0.2,1.2,0.5C172.8,12.6,172.9,13.1,172.9,13.8 M173.4,19.8l2.5-8.7l-2,0.3l-0.5,1.5
		c-0.2-0.6-0.4-1.1-0.8-1.4c-0.3-0.3-0.8-0.4-1.3-0.4c-0.9,0-1.8,0.4-2.8,1.1c-1.3,0.9-2.3,2.1-3.1,3.6s-1.2,2.9-1.2,4.3
		c0,0.9,0.2,1.6,0.7,2.1s1,0.8,1.6,0.8c0.7,0,1.3-0.2,2-0.6c0.9-0.6,2-1.6,3.1-3.1l-0.3,1c-0.2,0.7-0.3,1.2-0.3,1.7
		c0,0.4,0.1,0.6,0.3,0.8c0.2,0.2,0.5,0.3,0.8,0.3c0.5,0,1.1-0.2,1.7-0.7c0.6-0.5,1.2-1.1,1.8-2l-0.4-0.3c-0.6,0.8-1,1.3-1.3,1.5
		c-0.2,0.1-0.3,0.2-0.4,0.2c-0.1,0-0.2,0-0.3-0.1s-0.1-0.2-0.1-0.4c0-0.1,0-0.2,0-0.3L173.4,19.8z M186.3,11.1h-0.5
		c-0.2,0.4-0.6,0.6-0.9,0.6c-0.1,0-0.4-0.1-0.9-0.2c-0.4-0.2-0.7-0.3-0.8-0.3c-0.2,0-0.5-0.1-0.7-0.1c-0.9,0-1.7,0.3-2.3,0.9
		c-0.6,0.6-0.9,1.3-0.9,2.1c0,0.5,0.1,0.9,0.3,1.4s0.7,1.1,1.5,2s1.3,1.6,1.5,2.1c0.1,0.3,0.2,0.6,0.2,1c0,0.5-0.2,1-0.6,1.3
		c-0.4,0.4-0.9,0.5-1.5,0.5c-0.8,0-1.5-0.3-2-0.8s-0.8-1.5-0.8-2.8h-0.5l-0.8,4.2h0.5c0.2-0.4,0.5-0.6,0.9-0.6
		c0.2,0,0.4,0.1,0.7,0.2c0.8,0.3,1.5,0.4,2.1,0.4c1.1,0,2.1-0.3,2.8-1s1.1-1.5,1.1-2.4c0-0.5-0.2-1.1-0.5-1.7s-1-1.5-2.2-2.7
		c-0.4-0.5-0.7-0.8-0.8-1.1s-0.2-0.5-0.2-0.8c0-0.4,0.2-0.8,0.5-1.1s0.7-0.4,1.3-0.4c0.7,0,1.2,0.3,1.7,0.8c0.4,0.5,0.7,1.4,0.7,2.5
		h0.5L186.3,11.1z"/>
</g>
</svg>
