<?xml version="1.0" encoding="utf-8"?>
<!-- Generator: Adobe Illustrator 26.3.1, SVG Export Plug-In . SVG Version: 6.00 Build 0)  -->
<svg version="1.1" id="Capa_1" xmlns="http://www.w3.org/2000/svg" xmlns:xlink="http://www.w3.org/1999/xlink" x="0px" y="0px"
	 viewBox="0 0 1920 788" style="enable-background:new 0 0 1920 788;" xml:space="preserve">
<style type="text/css">
	.st0{fill:#FFFFFF;}
</style>
<g>
	<path class="st0" d="M1881.2,514c0-60.2,0-120.3,0.1-180.5c0-0.4,0.1-0.9,0.1-1.3c0,0,0,0,0,0c0-2.1,0-4.3-0.1-6.4c0,0,0,0,0,0
		c-4.5-21.3-19.6-33.6-41.2-33.6c-585.9,0-1171.7,0-1757.6,0c-3.2,0-6.5,0.1-9.6,0.7c-20.4,4.2-32.7,20.4-32.7,43.5
		c-0.1,59.1,0,118.2,0,177.3c0,6.3,0.7,12.5,3,18.4c6.6,17.3,20.9,26.1,42.6,26.1c583.4,0,1166.9,0,1750.4,0c1.3,0,2.6,0,3.9,0
		c20.7-0.5,33.6-10.2,40.4-30c0.4-1.1,0.3-2.7,2-3c0-2.2,0-4.3-0.1-6.4c-0.1-0.1-0.1-0.2-0.1-0.3
		C1880.9,517.3,1881.2,515.6,1881.2,514z M408.2,498.1c0,4.9-1.3,6.1-6.1,6.1c-23.1-0.3-46.2-0.2-69.3,0c-4,0-5.6-0.7-5.6-5.3
		c0.3-21.8-0.2-43.6,0.3-65.3c0.2-8.4,1.9-16.8,1.8-25.6c-9.1,16.5-18.3,32.9-27.4,49.4c-7,12.6-14.1,25.2-20.8,37.9
		c-1.8,3.4-3.9,4.4-7.5,4.3c-16.4-0.2-32.8-0.2-49.2,0c-4.1,0.1-6-1.4-7.8-4.9c-14.3-28.2-28.8-56.3-43.2-84.4c0,0,0,0,0,0
		c-0.5,0.9-1,1.7-1.4,2.7c4.3,28.3,1.9,56.8,2.6,85.2c0.1,4.4-0.9,6-5.6,5.9c-23.5-0.2-47.1-0.2-70.6,0c-4.8,0.1-5.6-1.6-5.6-5.9
		c0.1-49.2,0.2-98.3,0-147.5c0-5,1.4-6.1,6.1-6c32.6,0.2,65.2,0.2,97.8,0c4,0,6.1,1.3,7.8,4.9c14,28.6,28.2,57.1,42.3,85.6
		c0.9,1.9,2,3.8,3.4,6.6c8.3-15.3,16.2-29.9,24.2-44.5c8.6-15.9,17.3-31.7,25.7-47.7c1.8-3.5,3.8-4.9,7.9-4.9
		c31.5,0.2,63.1,0.2,94.6,0c4.7,0,5.6,1.6,5.6,5.9C408.1,399.8,408,448.9,408.2,498.1z M631,504.4c-2.7,0-4.3-0.8-5.8-3
		c-3.4-5.2-7.3-10.1-10.7-15.4c-1.6-2.5-3.4-3.3-6.3-3.3c-25.5,0.1-50.9,0.1-76.4,0c-3.2,0-5,1-6.6,3.8c-3.4,6-5.9,14.1-11.1,16.9
		c-5.6,3-13.9,0.9-21,0.9c-20.7,0-41.3,0-62,0c-0.4-3.1,1.6-4.8,2.8-6.8c29.8-49.4,59.7-98.7,89.5-148.1c1.9-3.1,3.8-4.5,7.6-4.4
		c26.3,0.2,52.7,0.1,79,0c3.3,0,5.5,0.6,7.4,3.7c31.1,50.9,62.2,101.7,93.4,152.5c0.5,0.7,0.7,1.5,1.4,3.1
		C684.6,504.3,657.8,504.3,631,504.4z M987,502.4c-0.5,2.5-2.8,1.4-4.3,1.4c-24.8,0.1-49.6,0.2-74.5,0c-10.8-0.1-13-2.6-13.2-13.6
		c-0.2-6.9-0.4-13.8-1-20.6c-0.8-10.5-6.5-17.6-16.9-19.1c-17.4-2.4-34.9-0.7-52.4-0.9c-3.9-0.1-2.8,3.1-2.8,5.2
		c-0.1,14.4-0.2,28.9,0.1,43.3c0.1,4.4-1.1,5.9-5.7,5.9c-25.5-0.2-50.9-0.2-76.4,0c-4.5,0-5.8-1.1-5.8-5.7
		c0.2-49.4,0.2-98.7,0-148.1c0-4.7,1.5-5.7,5.8-5.6c51.6,0.1,103.2-0.1,154.7,0.2c21,0.1,41.8,2,61.1,11.3
		c16.9,8.2,23.5,18.9,22.1,35.6c-1.4,17.5-11,28.9-28.7,34c-3.1,0.9-6.4,1.7-10.7,2.9c9.7,2.9,18.4,5.4,26.1,10.1
		c9.5,5.8,15.3,13.6,14.7,25.3c-0.3,7.5,0.1,15.1,0.1,22.6c0,4.7,0.4,9,5.2,11.6C985.9,499,987.4,500.5,987,502.4z M1254.1,478.4
		c-10.1,10.4-22.7,16.4-36.4,19.8c-50,12.7-99.9,12.2-149.6-1.6c-14.7-4.1-28.1-11.2-37.9-23.5c-3.7-4.6-6.1-9.8-7.3-15.6
		c-0.6-2.9,0-3.8,3-3.8c25.7,0.1,51.4,0,77.1,0c1.9,0,3.3,0.5,4.4,2c6,8.2,14.6,12.1,24.3,13.2c12.7,1.5,25.4,1.3,37.9-2.1
		c1.9-0.5,3.7-1.2,5.4-2.1c5.8-3.2,6.1-7.8,0.6-11.5c-5.8-4-12.5-5.6-19.3-7c-19.6-4.2-39.8-4.8-59.4-9.1c-18.6-4-37-8.7-53-19.6
		c-11.5-7.9-19.3-18-16.6-33.1c1.7-9.5,7.6-16.3,15-21.9c14.1-10.7,30.5-16,47.6-19c38.6-6.8,77.3-7.5,115.6,1.9
		c22,5.4,40,16.8,51.1,37.4c3.8,7.1,3.8,7.1-4,7.1c-11.7,0-23.3,0-35,0c0-0.1,0-0.2,0-0.4c-12.5,0-25,0-37.5,0c-2.1,0-4,0.1-5.6-2.1
		c-4.7-6.7-11.7-10-19.5-11.7c-11.9-2.5-23.6-1.4-35.1,2.3c-3.2,1-6.7,2.6-7.1,6.7c-0.3,4.3,3.2,5.8,6.2,7.4
		c13.9,7.2,29.3,8.2,44.5,10.1c22.7,2.9,45.3,6.3,66.9,14.2c6.3,2.3,12.4,5,18,8.7C1268.6,438.2,1271,461,1254.1,478.4z
		 M1557.8,470.4c-21.7,19.4-47.8,29.7-76,34.7c-43,7.7-85,4.5-125.3-13.5c-13.3-5.9-25.3-13.8-35.7-24.2
		c-27.8-28-26.9-65.1,2.2-91.7c21.9-20,48.4-30,77-35.6c13.6-2.5,27.3-3.7,47.5-3.6c31.4,0.8,67.3,7.8,99.1,29.7
		c13.7,9.5,24.9,21.3,30.9,37.2C1586.1,426.2,1578.4,452.1,1557.8,470.4z M1828.4,498.5c0.2,5.1-1.5,6-6.2,5.9
		c-33-0.2-66.1-0.1-99.1-0.1s-66.1-0.1-99.1,0.1c-4.7,0-6.7-0.7-6.7-6.2c0.2-49.2,0.2-98.3,0-147.5c0-4.6,1.3-5.7,5.8-5.7
		c25.7,0.2,51.4,0.3,77.1,0c5.1-0.1,6,1.6,5.9,6.2c-0.2,35.8,0,71.6-0.2,107.4c0,5,1.4,6,6.1,5.9c36.7-0.2,73.4,0,110.1-0.2
		c5.2,0,6.5,1.4,6.3,6.4C1828,480,1828,489.3,1828.4,498.5z"/>
	<path class="st0" d="M1881.8,333.2c0,59.5,0,119.1,0,178.6c0,2.2-0.5,4.5,0.5,6.7c0.1,0.1,0.1,0.1,0.2,0.2c0-62.1,0-124.2,0-186.3
		v0c-0.3-0.1-0.5-0.1-0.7-0.2C1881.8,332.6,1881.8,332.9,1881.8,333.2z"/>
	<path class="st0" d="M827.6,727.2c-0.1,7.3-0.3,14.7,0.1,22c0.2,4.9-0.9,7.3-6.3,6.6c-3.4-0.4-6.8-0.1-10.3-0.1c0,0,0,0,0,0
		c-0.1,0.4-0.1,0.9-0.1,1.3c6,0,12.1,0,18.1,0c-0.1-9.5-0.2-18.9-0.3-28.4c0-1.3,0-2.6,1.6-3.1C827.2,722.2,827.6,725.2,827.6,727.2
		z"/>
	<path class="st0" d="M1882.5,325.9c-0.4,0-0.8,0-1.2-0.1c0,0,0,0,0,0c0.8,2,0.5,4.1,0.5,6.2c0.3-0.1,0.5,0.1,0.7,0.4c0,0,0,0,0,0
		C1882.5,330.2,1882.5,328.1,1882.5,325.9z"/>
	<path class="st0" d="M1881.4,332.2c0.1,0,0.2,0,0.4,0c0-0.1,0-0.2,0-0.3C1881.7,332.1,1881.5,332.1,1881.4,332.2L1881.4,332.2z"/>
	<path class="st0" d="M1666.5,156.4c4.2,3.1,5,5.7,3.3,10.6c-8.4,24.2-16.4,48.5-25,74.3c2.9-2,4.5-3.1,6.1-4.3
		c19.4-14.3,38.9-28.5,58.3-42.9c2.8-2.1,4.7-2.5,7.7-0.1c7.1,5.6,14.5,10.8,21.8,16.2c13.6,10,27.2,20,40.9,30.1
		c0.8-2,0-3.1-0.4-4.3c-6.5-19.4-13-38.8-19.4-58.2c-1.9-5.6-6.1-12.2-4.6-16.9c1.5-4.7,8.7-7.7,13.5-11.3
		c17.4-13,34.7-25.9,52.4-39.1c-2.5-1.6-4.7-0.9-6.7-0.9c-22.4,0-44.9-0.4-67.3,0.2c-7.1,0.2-9.5-2.3-11.4-8.6
		c-7.1-22.9-14.7-45.7-22.2-68.6c-1.7,0.7-1.8,2.1-2.2,3.3c-7.3,22.5-14.8,44.9-21.9,67.5c-1.5,5-3.8,6.5-9,6.4
		c-21.4-0.3-42.7-0.1-64.1-0.1c-3.7,0-7.5,0-12.9,0c2.9,2.2,4.4,3.4,5.9,4.5C1628.3,128.2,1647.3,142.5,1666.5,156.4z"/>
	<path class="st0" d="M918.6,165.8c-7.8,22.5-15.3,45.2-22.8,67.8c-0.7,2-2,4-1.4,6.8c20.9-15.3,41.5-30.2,61.8-45.5
		c3.8-2.9,6.3-3.4,10.3-0.2c10.1,8.1,20.7,15.5,31.1,23.2c10.1,7.4,20.2,14.8,31.3,23c-0.6-2.3-0.7-3.1-1-3.9
		c-7.9-23.6-15.7-47.3-23.9-70.8c-1.6-4.6-0.6-6.9,3.1-9.5c10.8-7.7,21.5-15.8,32.2-23.8c10-7.4,19.9-14.8,31.3-23.3
		c-3.9,0-5.9,0-8,0c-18.3,0-36.7,0.1-55-0.1c-6.8,0-15.4,2.9-20-1.2c-4.4-4-5-12.4-7.1-18.9c-6.2-18.9-12.3-37.8-18.6-57
		c-2.4,2.1-2.5,4.6-3.2,6.8c-7,21-14.1,42-20.5,63.2c-1.8,5.8-4.3,7.5-10.3,7.4c-24.8-0.4-49.5-0.2-74.3-0.2
		c-0.1,0.4-0.3,0.8-0.3,1.1c20.8,15.4,41.5,30.9,62.4,46.1C919.2,159.4,920.1,161.6,918.6,165.8z"/>
	<path class="st0" d="M1291.6,173.4c-0.7,2-1.4,4.1-2.1,6.1c-6.7,20.2-13.3,40.4-20.4,61.8c21.8-16,42.6-30.9,63-46.3
		c4-3,6.3-3,10.3,0c20.3,15.3,40.9,30.3,61.5,45.5c0.8-2.9-0.7-5-1.4-7.2c-7.5-22.6-15-45.3-22.8-67.9c-1.3-3.7-0.7-5.6,2.5-7.9
		c19.3-14.1,38.4-28.5,57.6-42.8c1.8-1.3,3.4-2.8,6.1-5c-3.6,0-5.8,0-7.9,0c-23.1,0-46.2-0.2-69.3,0.1c-4.8,0.1-6.8-1.3-8-5.9
		c-2-7.6-4.7-15.1-7.2-22.7c-5.3-16.2-10.6-32.3-15.9-48.5c-2,1.1-1.9,2.5-2.3,3.7c-7.2,22-14.7,44-21.6,66.2
		c-1.6,5.4-3.8,7.4-9.7,7.3c-23.3-0.4-46.6-0.2-69.9-0.1c-1.6,0-3.7-1-5.2,1.1c18.7,13.8,37.3,27.6,55.8,41.3
		C1295.9,160.4,1295.9,160.4,1291.6,173.4z"/>
	<path class="st0" d="M539.3,156.7c4.1,2.9,4.9,5.5,3.1,10c-2.7,6.8-4.8,13.8-7.1,20.7c-5.8,17.5-11.6,35-17.9,53.9
		c17.9-13.1,34.5-25.3,51.2-37.5c5.6-4,11.3-11.2,16.8-11.1c5.8,0.1,11.6,7.1,17.3,11.3c16.4,12.1,32.9,24.2,49.4,36.4
		c1-2-0.1-3.3-0.6-4.7c-7.7-23.3-15.4-46.5-23.3-69.7c-1.4-4.1-0.9-6.3,2.8-9c19.3-14.1,38.4-28.5,57.6-42.8c1.6-1.2,3.7-2,4.7-4.6
		c-25.5,0-50.5-0.2-75.5,0.2c-5.4,0.1-7.4-1.7-8.9-6.5c-7.3-23.6-15.1-47-23.2-72.2c-1.4,3.9-2.2,5.8-2.9,7.8
		c-7.2,21.8-14.5,43.7-21.4,65.6c-1.3,4.1-3,5.3-7.2,5.3c-22-0.2-44-0.1-66-0.1c-3.5,0-7.1,0-12.3,0c3.1,2.4,4.9,3.8,6.7,5.2
		C501.5,128.8,520.2,143,539.3,156.7z"/>
	<path class="st0" d="M163.2,156.2c4.5,3.2,5.1,6,3.3,11c-5,13.5-9.3,27.2-13.8,40.9c-3.5,10.5-7,21.1-11,33.1
		c3.4-2.4,5.4-3.9,7.5-5.4c18.2-13.3,36.7-26.5,54.6-40.3c5-3.8,7.9-3.2,12.5,0.3c19.9,15.1,40.2,29.7,60.3,44.6
		c1-1.9-0.1-3.2-0.6-4.6c-7.7-22.8-15.1-45.7-23.1-68.4c-2-5.5-1-8.4,3.8-11.5c7.3-4.7,14-10.1,20.9-15.3
		c13.3-9.9,26.7-19.9,41.5-31c-3.9,0-6,0-8.1,0c-23.1,0-46.2-0.2-69.3,0.1c-5,0-7.1-1.7-8.5-6.3c-7.4-23.6-15.1-47-23.3-72.3
		c-1.3,3.8-2.1,5.7-2.8,7.6c-7.1,21.6-14.2,43.3-21.1,65c-1.4,4.4-3.3,6-8.1,5.9c-21.8-0.3-43.6-0.1-65.4-0.1c-3.5,0-7.1,0-12.4,0
		c2.7,2.1,4,3.1,5.3,4.1C124.7,127.9,143.8,142.2,163.2,156.2z"/>
	<path class="st0" d="M846.3,658.7c-6.4,0.7-11.7,3.9-17.4,8.2c0.5-6.3-2.6-7.5-7.4-6.8c-2.3,0.3-4.7,0.2-7.1,0
		c-2.9-0.2-3.7,1.1-3.7,3.8c0.1,30.6,0.2,61.2,0.3,91.8c0,0,0.1,0,0.1,0c2.5-2.2,5.6-2,8.5-1.9c4.8,0.2,6.4-2,6.4-6.5
		c-0.1-6.6-0.4-13.2,0.2-19.8c0.1-1.6,0.3-3.6,2.4-4.1c0.9-0.3,1.7,0.9,1.8,2.1c11.9,9.2,26.8,9.7,38.4,1.3
		c16.2-11.8,20.4-38.1,8.4-54.4C869.5,662.1,859.3,657.2,846.3,658.7z M846.8,716.1c-11.3-0.1-19.2-8.7-19.1-20.8
		c0-12.1,7.9-20.3,19.5-20.2c10.9,0.1,18.8,8.6,18.8,20.3C866,707.3,857.8,716.1,846.8,716.1z"/>
	<path class="st0" d="M968.4,670.2c0-10.1,0-10-10.3-10.1c-4.3,0-9.1-1-8.2,6.1c-19.9-11.5-35.2-10-46.6,4.2
		c-11.5,14-11,37.2,0.9,50.8c11.9,13.6,27.7,15,45.7,3.9c-0.7,6.1,2.9,6.6,7.4,6c1.9-0.2,3.9-0.3,5.8,0c4.2,0.6,5.5-1,5.4-5.3
		C968.3,707.2,968.4,688.7,968.4,670.2z M932.1,716c-11.2,0-19-8.5-19-20.7c0-12,7.6-20.2,18.6-20.3c11.6,0,19.4,8.1,19.4,20.3
		S943.4,716,932.1,716z"/>
	<path class="st0" d="M1098.6,671c0-11,0-10.9-11.2-11.1c-4.5-0.1-8.3-0.2-6.8,7.1c-18.3-14.4-36.4-8.5-45.6,1.4
		c-12.4,13.4-13.4,36.6-1.9,51.3c4.9,6.3,11.2,10.8,19.1,12.3c10.2,1.9,19.6-0.1,28.5-8.3c-1.4,6.8,1.4,7.9,6,7.3
		c2.3-0.3,4.8-0.3,7.1,0c4.3,0.6,4.9-1.3,4.9-5.1C1098.5,707.6,1098.6,689.3,1098.6,671z M1062.5,716.1
		c-11.1,0.1-19.4-8.6-19.4-20.5c0-11.7,7.8-20.3,18.6-20.4c11.5-0.1,19.6,8.1,19.8,20C1081.7,707.1,1073.6,715.9,1062.5,716.1z"/>
	<path class="st0" d="M1239.5,661.8c-14.2,6.9-21.9,21.5-20.3,38.6c1.4,14.4,11.5,26.8,25,30.7c17.5,5,33.7,0.1,44.4-13.9
		c-2-1.1-3.7-1.9-5.4-2.8c-5.3-2.9-9.7-4.6-16.2-0.3c-9.8,6.5-23,2.5-28.2-6.8c-2.8-5.1-2.3-6.2,3.5-6.2c15.3-0.1,30.7-0.1,46,0
		c3,0,5.3,0,5.4-4.2C1294.6,668.3,1265.2,649.2,1239.5,661.8z M1242,686.9c-4,0.1-4.5-1-2.5-4.3c4.8-7.4,11.9-9.6,20.1-8.6
		c7.3,0.8,12.6,4.7,15.5,12.8C1263.5,686.8,1252.7,686.8,1242,686.9z"/>
	<path class="st0" d="M1193.2,680.8c-6.7-5.8-13.3-11.6-19.9-17.5c-2.8-2.5-5.6-5.5-2.7-9.4c2.8-3.9,7-4,11.1-2.3
		c3.3,1.3,6,3.5,8,6.4c2.2,3.3,4.2,1.3,5.5-0.6c2.7-3.8,11.7-5.5,8.2-10.7c-7.6-11.4-21.6-17.6-36.4-11.8
		c-17,6.6-20.8,25.8-7.9,40.3c7.8,8.7,17.7,15.1,25.8,23.5c3.6,3.6,6.1,7.9,2.4,12.6c-3.6,4.7-8.6,5.4-14,3.2
		c-4-1.6-6.5-4.8-8.9-8.2c-0.9-1.3-1.2-3.1-3.8-2.4c-13.4,3.8-15.3,10.4-5.6,20.2c0.6,0.6,1.2,1.3,1.9,1.8
		c10.6,8.6,22.5,9.7,34.7,4.6c10.5-4.4,15.5-13.2,15.6-20.1C1207.2,696.5,1203.2,689.2,1193.2,680.8z"/>
	<path class="st0" d="M663,658.4c-20.4,0-36.6,16.5-36.7,37.2c-0.1,20.6,16.1,36.9,36.7,36.9c21.3,0,37.6-15.8,37.8-36.6
		C701,675,684.2,658.3,663,658.4z M662.8,715.7c-11.1-0.1-18.5-8.3-18.4-20.4c0.1-11.8,8-19.9,19.2-19.9c11,0,18.8,8.4,18.8,20.2
		C682.4,707.7,674.4,715.8,662.8,715.7z"/>
	<path class="st0" d="M484,713.2c-5.4,0.1-10.8-0.3-16.2,0.1c-4.7,0.3-6.2-1-6.1-6c0.3-19.6,0.1-39.2,0.1-58.8
		c0-13.5,0-13.2-13.6-13.3c-4.6-0.1-5.1,1.7-5.1,5.6c0.2,14,0.1,28,0.1,42c0,14.5,0.1,28.9-0.2,43.5c0,4,1.1,5.1,5.1,5
		c9.1-0.3,18.1-0.1,27.2-0.1c13.8,0,13.7,0,12.9-14C488,714.1,487,713.1,484,713.2z"/>
	<path class="st0" d="M562.1,689.7c-4.4-2.4-8.8-4.5-13.2-6.8c-2-1-3.9-2.4-3.1-5c0.7-2.4,3-3,5.2-3.1c4-0.3,7.1,1.6,10,3.9
		c1.4,1.1,2.8,3.2,4.8,0.9c2.9-3.4,8.8-5.8,8.4-9.9c-0.3-4-5.6-6.8-9.8-8.6c-2.6-1.1-5.3-2.1-8-2.5c-12.3-1.9-23.1,3.6-26.7,13.3
		c-3.7,10,0.5,19.4,12,26.3c3.7,2.2,7.8,3.7,11.4,6c3.1,1.9,7.8,3.8,5.4,8.7c-2.2,4.3-6.6,4.3-10.8,2.7c-1.6-0.6-3.6-1-4.6-2.2
		c-5.3-6.5-9-3.1-12.6,1.8c-0.6,0.9-1.4,1.7-2.2,2.4c-2.9,2.3-1.9,4.2,0.3,6.3c6.2,5.9,13.5,9.1,21.7,8.6c13.7,0,22.5-5.9,25.3-16.5
		C578.5,705.2,574,696.3,562.1,689.7z"/>
	<path class="st0" d="M749.4,692.1c-4.8-3.1-10.2-5.5-15.3-8.3c-2.5-1.5-6.3-2.8-4.5-6.6c1.6-3.4,5.4-3.1,8.6-2.1
		c1.6,0.4,3.4,1.1,4.5,2.3c3.5,3.9,6.3,3.1,9.2-0.7c1.1-1.5,2.6-2.9,4.1-4.1c2.5-2,1.9-3.6-0.2-5.7c-8.1-8-17.7-10.5-28.5-7.7
		c-7.7,1.9-13,6.8-14.9,14.6c-1.9,7.9,0.7,14.4,6.6,19.8c3.7,3.4,8.1,5.8,12.5,8c2.8,1.5,5.6,3.1,8.3,4.9c1.9,1.3,3,3.2,2.5,5.6
		c-0.6,2.7-2.9,3.7-5.2,4.2c-4.3,0.8-8.5-0.5-11.3-3.5c-5-5.3-8.1-2.6-11.3,1.7c-0.6,0.8-1.3,1.8-2.1,2.4c-4,2.8-2.3,5.2,0.4,7.7
		c6,5.5,13,8.3,21.2,7.8c1.3,0,2.6,0.1,3.9-0.2c9.9-0.5,18.7-7,21-15.5C761.6,706.9,758.4,698,749.4,692.1z"/>
	<path class="st0" d="M1407.4,660c-11.5,0-11.4,0-16,10.6c-4.2,9.8-8.4,19.5-12.6,29.3c-0.9-0.3-1.1-0.4-1.2-0.5
		c-3.6-8.3-7.2-16.5-10.8-24.8c-6.6-15.5-6.6-15.5-24.1-14.3c0.6,1.7,1.1,3.3,1.7,4.9c8.7,20.3,17.6,40.6,25.9,61.1
		c1.9,4.5,4.4,4.7,8.3,4.8c3.8,0.1,6.1-0.7,7.7-4.7c8.2-20,16.9-39.9,25.4-59.9C1414.4,660,1414.4,660,1407.4,660z"/>
	<path class="st0" d="M620.4,663.2c0.1-2.4-0.8-3.8-3.3-3.3c-6.9,1.4-7.9-2.4-7.1-7.9c0.2-1.5,0-3,0-4.5c0-14.6,0-14.5-14.6-13.5
		c-2.9,0.2-3.7,1.1-3.6,3.8c0.1,5.9-0.1,11.7,0.1,17.5c0.2,3.5-0.7,5.4-4.5,4.7c-3.7-0.7-5.1,0.9-4.6,4.6c0.2,1.7,0.2,3.5,0,5.2
		c-0.6,4.2,0.5,6.6,5.4,5.7c3.4-0.7,3.7,1.5,3.7,4.2c-0.1,7.8,0,15.5,0,23.3c0,5.2,0,10.4,0,15.4c0,12.6,0,12.4,12.9,12.5
		c4.2,0.1,5.4-1.1,5.3-5.3c-0.3-15.1,0-30.2-0.2-45.3c-0.1-3.9,1-5.6,5-4.9c4.8,0.9,6.1-1.4,5.5-5.7
		C620.1,667.5,620.3,665.3,620.4,663.2z"/>
	<path class="st0" d="M1336.4,658.6c-7.2-1-12.4,2.2-17.2,7.6c0.7-5.1-1.3-6.7-5.7-6.2c-1.5,0.2-3,0.2-4.5,0
		c-4.6-0.7-5.8,1.2-5.7,5.7c0.3,17.5,0.1,34.9,0.1,52.4c0,13.6,0,13.5,13.6,13.1c3.4-0.1,4.5-1,4.4-4.4c-0.3-8.7-0.1-17.3-0.1-25.9
		c0-6.2-0.4-12.5,1.5-18.6c1.3-4.3,3.6-9,8.6-7.8c4.7,1.1,5.6-0.7,6.6-4.1c0.6-2.1,1.1-4.2,2.1-6.1
		C1342.2,660.2,1340,659.1,1336.4,658.6z"/>
	<path class="st0" d="M1016.1,658.8c-7.6-1.5-13.4,1.5-18.9,8.8c1.2-7.1-1.8-7.7-6.4-7.5c-9.1,0.2-9.1,0-9.1,9.3
		c0,16.2,0,32.3,0,48.5c0,13.6,0,13.5,13.4,13.3c3.6-0.1,4.9-0.9,4.8-4.7c-0.3-9-0.5-18.1-0.3-27.1c0.1-6.2-0.3-12.6,2.1-18.5
		c1.5-3.7,3.9-7.7,8.4-6.4c4.2,1.1,5.2-0.3,6.1-3.7c0.7-2.4,1.6-4.9,2.7-7.2C1020.5,660.3,1018.8,659.2,1016.1,658.8z"/>
	<path class="st0" d="M1485.2,658.5c-7.1-1-12.5,2.1-17.7,9c1.3-7.4-2.1-7.7-6.5-7.7c-9,0.3-9,0.1-9,8.8c0,16.6,0,33.2,0,49.8
		c0,13.1,0,13,13.5,12.6c3.5-0.1,4.4-1.2,4.3-4.5c-0.2-9.4-0.1-18.9,0-28.4c0-5.8-0.1-11.7,2-17.2c1.4-3.7,4-7.9,8.3-6.5
		c5,1.6,5.5-1,6.5-4.1c0.7-2.1,1.2-4.2,2.2-6.1C1491,660,1488.8,659,1485.2,658.5z"/>
	<path class="st0" d="M515.7,695.8c0-8,0-16,0.1-24c0-11.9,0-11.6-11.7-12c-5.7-0.2-6.7,1.9-6.6,7c0.3,17,0.1,34.1,0.1,51.1
		c0,13.5,0,13.3,13.7,13.2c3.9-0.1,4.6-1.4,4.5-4.9C515.6,716.1,515.7,705.9,515.7,695.8z"/>
	<path class="st0" d="M1440.4,695.8c0-7.8,0-15.5,0.1-23.3c0-12.5,0-12.3-12.5-12.5c-4.6-0.1-5.9,1.2-5.8,5.7
		c0.3,17.5,0.1,34.9,0.1,52.4c0,13.3,0,13,13.1,13.1c4.6,0.1,5.2-1.7,5.1-5.6C1440.3,715.5,1440.4,705.7,1440.4,695.8z"/>
	<path class="st0" d="M1431.6,631.1c-6.5-0.1-11.5,4.6-11.7,11.1c-0.2,6.7,5.1,12.2,11.6,12.2c6.2,0,11.5-5.3,11.5-11.6
		C1443.1,636.4,1438.1,631.2,1431.6,631.1z"/>
	<path class="st0" d="M507.3,631.2c-6.6-0.2-11.6,4.5-11.8,11c-0.3,6.8,4.8,12.2,11.3,12.3c6.2,0,11.3-5.1,11.4-11.5
		C518.3,636.3,513.7,631.3,507.3,631.2z"/>
	<path class="st0" d="M171.1,406.9c-0.4,2.2-0.4,4.2,0.9,6.1c0-1.2-2.2-3.4,1.4-2.7c0,0,0-0.1,0-0.1
		C173.2,408.7,172.8,407.4,171.1,406.9z"/>
	<path class="st0" d="M893.9,387.1c-4.2-2.3-8.7-4-13.5-4.1c-9-0.2-18.1-0.1-27.1-0.1c0-0.2,0-0.4,0-0.5c-7.5,0-15.1,0.1-22.6-0.1
		c-3.2,0-4.6,0.8-4.5,4.3c0.2,8,0.2,15.9,0,23.9c-0.2,3.5,1.3,4.2,4.5,4.2c14.4-0.1,28.9,0.1,43.3-0.1c6.9,0,13.8-1.1,19.9-4.7
		C903.7,404.1,903.7,392.6,893.9,387.1z"/>
	<path class="st0" d="M1401.3,394.1c-17.7,17.6-16.6,43.6,2.6,59.6c19,15.9,48.3,17.5,68.8,3.7c12.3-8.3,19.9-19.4,20.1-34.8
		c0-9.7-3.5-18.1-9.8-25.4C1463.1,373.8,1423.2,372.3,1401.3,394.1z"/>
	<path class="st0" d="M573.7,403.6c-1.2-2.4-1.6-5.4-4.5-7.2c-8.8,18.2-17.4,36.2-26.5,54.9c17.6,0,34.1,0.1,50.6-0.1
		c5,0,2-3.1,1.2-4.7C587.7,432.1,580.8,417.9,573.7,403.6z"/>
</g>
</svg>
