<?xml version="1.0" encoding="utf-8"?>
<!-- Generator: Adobe Illustrator 26.3.1, SVG Export Plug-In . SVG Version: 6.00 Build 0)  -->
<svg version="1.1" id="Capa_1" xmlns="http://www.w3.org/2000/svg" xmlns:xlink="http://www.w3.org/1999/xlink" x="0px" y="0px"
	 viewBox="0 0 208.4 38.4" style="enable-background:new 0 0 208.4 38.4;" xml:space="preserve">
<style type="text/css">
	.st0{fill:#FFFFFF;}
</style>
<path class="st0" d="M36.1,33.2c0,0-0.9-1.7-6.6-1.5c-5.6-0.2-6.5,1.5-6.5,1.5s-1.6,1,1.1,1.6s5.4,3.6,5.4,3.6s2.7-3,5.5-3.6
	S36.2,33.2,36.1,33.2"/>
<path class="st0" d="M18.6,7.8c0,0-0.9-7.1-6.6-7.7S0.8,4,0.1,8s4.4,6.4,4.4,6.4c1.9-1.7,4-3.2,6.2-4.4C13.2,9.1,15.9,8.3,18.6,7.8"
	/>
<path class="st0" d="M40.3,7.8c0,0,0.9-7.1,6.6-7.7S58.1,4,58.8,8s-4.4,6.4-4.4,6.4c-1.9-1.7-4-3.2-6.2-4.4
	C45.6,9.1,43,8.3,40.3,7.8"/>
<path class="st0" d="M20.2,15.4c-2.7-0.1-9.5,5.4-9.5,8.5c0.1,3,2.2,5.6,5.1,6.2c0.5,0.2,1,0.4,1.6,0.5c0.6,0,1.7-0.7,2.9-4.4
	c1.8-5.8,2.6-5.2,2.6-7.5C22.9,18.7,22.9,15.5,20.2,15.4 M17.7,28.3c-0.7,0-1.3-0.6-1.3-1.3c0-0.7,0.6-1.3,1.3-1.3
	c0.7,0,1.3,0.6,1.3,1.3C19,27.7,18.5,28.3,17.7,28.3C17.7,28.3,17.7,28.3,17.7,28.3"/>
<path class="st0" d="M35.6,18.7c0,2.3,0.8,1.7,2.6,7.5c1.1,3.6,2.2,4.4,2.8,4.4c0.5-0.1,1.1-0.2,1.6-0.5c2.9-0.7,5-3.2,5.1-6.2
	c0-3.2-6.8-8.6-9.5-8.5S35.6,18.7,35.6,18.7 M39.5,27c0-0.7,0.6-1.3,1.3-1.3s1.3,0.6,1.3,1.3c0,0.7-0.6,1.3-1.3,1.3c0,0,0,0,0,0
	C40.1,28.3,39.5,27.7,39.5,27C39.5,27,39.5,27,39.5,27"/>
<path class="st0" d="M90,37.5c-9.1,0-14.8-4.9-14.8-18.5c0-13.3,6.4-19,15.3-19c9,0,14.9,5,14.9,18.6C105.4,31.9,98.9,37.6,90,37.5
	 M90.5,31c4.2,0,6.7-3,6.7-12S94.4,6.6,90,6.6c-3.9,0-6.7,2.8-6.7,11.9C83.3,27.7,86,30.9,90.5,31"/>
<path class="st0" d="M127.5,27.3c0-5.8-16.8-5-16.8-16.5c0-6,5.3-10.8,12.9-10.8c6.1,0,9.9,2.8,11.1,4.4l-5,5.9
	c-1.6-2.1-4.1-3.4-6.8-3.4c-2.6,0-4.1,1.4-4.1,3.3c0,5.9,16.8,5,16.8,16.6c0,5.5-4.5,10.8-13.8,10.8c-7,0-11.4-3.1-12.7-4.5l4.5-6.6
	c1.6,1.6,4.7,4.4,9.2,4.4C126,30.8,127.5,29.2,127.5,27.3"/>
<path class="st0" d="M154.9,37.5c-9.1,0-14.9-4.9-14.9-18.5c0-13.3,6.4-19,15.3-19c9.1,0,14.9,5,14.9,18.6
	C170.2,31.9,163.7,37.6,154.9,37.5 M155.3,31c4.2,0,6.7-3,6.7-12s-2.7-12.4-7.1-12.4c-3.9,0-6.7,2.8-6.7,11.9
	C148.2,27.7,150.9,30.9,155.3,31"/>
<path class="st0" d="M175.6,29.1c1.5,1,3.2,1.6,4.9,1.7c2.3,0,3.1-1,3.1-3.2V0.5h8v27.6c0,5.5-3.2,9.5-10.8,9.5
	c-4.4,0-6.9-1.2-7.6-1.6L175.6,29.1z"/>
<rect x="200.4" y="0.5" class="st0" width="8" height="36.5"/>
</svg>
